#N canvas -13 23 1280 719 10;
#X obj 1237 110 adc~;
#X obj 281 298 route 0 1 2 3 4 5 6 7 8 9 10 11 12 13 14 15;
#X msg 1419 5 start;
#X msg 1462 5 stop;
#N canvas 19 88 1154 584 (subpatch) 0;
#X obj 50 354 osc~;
#X obj 51 239 unpack 0 0;
#X obj 50 434 *~;
#X obj 106 393 line~;
#X obj 107 307 f;
#X obj 107 276 trigger b f;
#X obj 158 326 r fi;
#X obj 230 325 r fo;
#X obj 52 8 inlet;
#X obj 289 526 outlet~;
#X obj 52 36 t b l;
#X obj 52 103 pack 0 0 0;
#X obj 544 535 print;
#X obj 133 68 unpack 0 0;
#X obj 107 353 pack 1 10;
#X obj 290 350 osc~;
#X obj 291 236 unpack 0 0;
#X obj 290 432 *~;
#X obj 347 389 line~;
#X obj 347 265 trigger b f;
#X obj 180 353 pack 0 20;
#X obj 347 300 f;
#N canvas 0 23 450 300 counter3 0;
#X msg 191 82 1;
#X obj 189 158 wrap;
#X obj 189 181 * 3;
#X obj 191 109 / 3;
#X obj 189 132 +;
#X obj 195 40 inlet;
#X obj 191 217 outlet;
#X connect 0 0 3 0;
#X connect 1 0 2 0;
#X connect 1 0 4 1;
#X connect 2 0 6 0;
#X connect 3 0 4 0;
#X connect 4 0 1 0;
#X connect 5 0 0 0;
#X restore 52 68 pd counter3;
#X obj 398 321 r fi;
#X obj 463 322 r fo;
#X obj 521 350 osc~;
#X obj 521 236 unpack 0 0;
#X obj 521 432 *~;
#X obj 577 389 line~;
#X obj 577 262 trigger b f;
#X obj 577 300 f;
#X obj 626 322 r fi;
#X obj 693 322 r fo;
#X text 273 26 wenn voice 0 eingefadet wird \, wird voice 1 ausgefadet
und voice 2 kann weiterklingen (weil es die vorherige stimme ist. damit
erzeugt man ein maximales overlapp von 3 und ein minimales overlap
von 2;
#X obj 32 301 line~;
#X obj 63 211 r glide;
#X obj 28 274 pack 220 10;
#X obj 272 301 line~;
#X obj 303 211 r glide;
#X obj 268 274 pack 220 10;
#X obj 502 301 line~;
#X obj 533 211 r glide;
#X obj 498 274 pack 220 10;
#X obj 114 130 route 0 1 2 3 4;
#X obj 734 347 osc~;
#X obj 734 233 unpack 0 0;
#X obj 734 429 *~;
#X obj 790 386 line~;
#X obj 790 259 trigger b f;
#X obj 790 297 f;
#X obj 839 319 r fi;
#X obj 906 319 r fo;
#X obj 715 298 line~;
#X obj 746 208 r glide;
#X obj 711 271 pack 220 10;
#X obj 943 318 osc~;
#X obj 943 204 unpack 0 0;
#X obj 941 419 *~;
#X obj 999 357 line~;
#X obj 999 230 trigger b f;
#X obj 999 318 pack 1 10;
#X obj 1072 315 pack 0 5;
#X obj 999 268 f;
#X obj 1048 290 r fi;
#X obj 1115 290 r fo;
#X obj 924 269 line~;
#X obj 955 179 r glide;
#X obj 920 242 pack 220 10;
#X obj 347 350 pack 1 15;
#X obj 420 347 pack 0 10;
#X obj 577 350 pack 1 20;
#X obj 650 347 pack 0 15;
#X obj 790 347 pack 1 25;
#X obj 863 344 pack 0 20;
#X connect 0 0 2 0;
#X connect 1 0 36 0;
#X connect 1 1 5 0;
#X connect 2 0 9 0;
#X connect 3 0 2 1;
#X connect 4 0 14 0;
#X connect 5 0 4 0;
#X connect 5 0 69 0;
#X connect 5 1 4 1;
#X connect 6 0 14 1;
#X connect 7 0 20 1;
#X connect 8 0 10 0;
#X connect 10 0 22 0;
#X connect 10 1 13 0;
#X connect 11 0 43 0;
#X connect 13 0 11 1;
#X connect 13 1 11 2;
#X connect 14 0 3 0;
#X connect 15 0 17 0;
#X connect 16 0 39 0;
#X connect 16 1 19 0;
#X connect 17 0 9 0;
#X connect 18 0 17 1;
#X connect 19 0 21 0;
#X connect 19 0 71 0;
#X connect 19 1 21 1;
#X connect 20 0 3 0;
#X connect 21 0 68 0;
#X connect 22 0 11 0;
#X connect 23 0 68 1;
#X connect 24 0 69 1;
#X connect 25 0 27 0;
#X connect 26 0 42 0;
#X connect 26 1 29 0;
#X connect 27 0 9 0;
#X connect 28 0 27 1;
#X connect 29 0 30 0;
#X connect 29 0 73 0;
#X connect 29 1 30 1;
#X connect 30 0 70 0;
#X connect 31 0 70 1;
#X connect 32 0 71 1;
#X connect 34 0 0 0;
#X connect 35 0 36 1;
#X connect 36 0 34 0;
#X connect 37 0 15 0;
#X connect 38 0 39 1;
#X connect 39 0 37 0;
#X connect 40 0 25 0;
#X connect 41 0 42 1;
#X connect 42 0 40 0;
#X connect 43 0 1 0;
#X connect 43 1 16 0;
#X connect 43 2 26 0;
#X connect 43 3 45 0;
#X connect 43 4 56 0;
#X connect 44 0 46 0;
#X connect 45 0 54 0;
#X connect 45 1 48 0;
#X connect 46 0 9 0;
#X connect 47 0 46 1;
#X connect 48 0 49 0;
#X connect 48 0 61 0;
#X connect 48 1 49 1;
#X connect 49 0 72 0;
#X connect 50 0 72 1;
#X connect 51 0 73 1;
#X connect 52 0 44 0;
#X connect 53 0 54 1;
#X connect 54 0 52 0;
#X connect 55 0 57 0;
#X connect 56 0 67 0;
#X connect 56 1 59 0;
#X connect 57 0 9 0;
#X connect 58 0 57 1;
#X connect 59 0 62 0;
#X connect 59 0 20 0;
#X connect 59 1 62 1;
#X connect 60 0 58 0;
#X connect 61 0 58 0;
#X connect 62 0 60 0;
#X connect 63 0 60 1;
#X connect 64 0 61 1;
#X connect 65 0 55 0;
#X connect 66 0 67 1;
#X connect 67 0 65 0;
#X connect 68 0 18 0;
#X connect 69 0 18 0;
#X connect 70 0 28 0;
#X connect 71 0 28 0;
#X connect 72 0 47 0;
#X connect 73 0 47 0;
#X restore 240 351 pd;
#X obj 662 679 dac~;
#X obj 777 363 hsl 128 15 0 1 0 0 empty empty empty -16 -8 0 10 -262144
-1 -1 3900 1;
#N canvas 76 124 697 475 cross 0;
#X floatatom 129 105 5 0 0 0 - - -;
#X msg 218 134 1;
#X obj 142 164 -;
#X floatatom 130 204 5 0 0 0 - - -;
#X obj 136 253 * -1;
#X floatatom 136 291 5 0 0 0 - - -;
#X obj 217 337 hsl 128 15 0 1 0 0 empty empty empty -2 -8 0 10 -262144
-1 -1 8800 1;
#X obj 125 69 inlet;
#X obj 175 422 outlet;
#X obj 932 413 hsl 128 15 0 1 0 0 empty empty empty -16 -8 0 10 -262144
-1 -1 0 1;
#X obj 188 50 hsl 128 15 0 1 0 0 empty empty empty -2 -8 0 10 -262144
-1 -1 0 1;
#X connect 0 0 2 0;
#X connect 0 0 1 0;
#X connect 1 0 2 1;
#X connect 2 0 3 0;
#X connect 3 0 4 0;
#X connect 4 0 5 0;
#X connect 5 0 6 0;
#X connect 6 0 8 0;
#X connect 7 0 0 0;
#X connect 10 0 0 0;
#X restore 705 319 pd cross;
#X obj 281 231 *~ 0.9;
#X obj 575 587 *~ 1.5;
#X obj 667 348 *~ 0.08;
#X text 779 343 crossfader-dry/wet;
#X obj 433 605 *~ 0.9;
#X text 545 -91 freud's spectral analysis re-synthesizer;
#X obj 1274 111 tgl 15 0 empty empty empty 17 7 0 10 -262144 -1 -1
0 1;
#X obj 1394 6 tgl 15 0 empty empty empty 17 7 0 10 -262144 -1 -1 0
1;
#X msg 1505 39 open;
#X obj 1500 105 readsf~ 1;
#X obj 281 257 sigmund~ -hop 1024 -npts 1024 -npeaks 16 tracks -minpower
80 -maxfreq 12000 -stabletime 500;
#X obj 1237 146 *~ 0;
#X obj 1235 174 throw~ inp;
#X obj 1582 56 vu 15 120 empty empty -1 -8 0 10 -66577 -1 1 0;
#X obj 1580 11 env~;
#X obj 1581 32 - 96;
#X text 250 521 first is in "glide";
#N canvas 64 153 1154 584 (subpatch) 0;
#X obj 50 354 osc~;
#X obj 51 239 unpack 0 0;
#X obj 50 434 *~;
#X obj 106 393 line~;
#X obj 107 307 f;
#X obj 107 276 trigger b f;
#X obj 158 326 r fi;
#X obj 230 325 r fo;
#X obj 52 8 inlet;
#X obj 289 526 outlet~;
#X obj 52 36 t b l;
#X obj 52 103 pack 0 0 0;
#X obj 544 535 print;
#X obj 133 68 unpack 0 0;
#X obj 107 353 pack 1 10;
#X obj 290 350 osc~;
#X obj 291 236 unpack 0 0;
#X obj 290 432 *~;
#X obj 347 389 line~;
#X obj 347 265 trigger b f;
#X obj 180 353 pack 0 20;
#X obj 347 300 f;
#N canvas 0 23 450 300 counter3 0;
#X msg 191 82 1;
#X obj 189 158 wrap;
#X obj 189 181 * 3;
#X obj 191 109 / 3;
#X obj 189 132 +;
#X obj 195 40 inlet;
#X obj 191 217 outlet;
#X connect 0 0 3 0;
#X connect 1 0 2 0;
#X connect 1 0 4 1;
#X connect 2 0 6 0;
#X connect 3 0 4 0;
#X connect 4 0 1 0;
#X connect 5 0 0 0;
#X restore 52 68 pd counter3;
#X obj 398 321 r fi;
#X obj 463 322 r fo;
#X obj 521 350 osc~;
#X obj 521 236 unpack 0 0;
#X obj 521 432 *~;
#X obj 577 389 line~;
#X obj 577 262 trigger b f;
#X obj 577 300 f;
#X obj 626 322 r fi;
#X obj 693 322 r fo;
#X text 273 26 wenn voice 0 eingefadet wird \, wird voice 1 ausgefadet
und voice 2 kann weiterklingen (weil es die vorherige stimme ist. damit
erzeugt man ein maximales overlapp von 3 und ein minimales overlap
von 2;
#X obj 32 301 line~;
#X obj 63 211 r glide;
#X obj 28 274 pack 220 10;
#X obj 272 301 line~;
#X obj 303 211 r glide;
#X obj 268 274 pack 220 10;
#X obj 502 301 line~;
#X obj 533 211 r glide;
#X obj 498 274 pack 220 10;
#X obj 114 130 route 0 1 2 3 4;
#X obj 734 347 osc~;
#X obj 734 233 unpack 0 0;
#X obj 734 429 *~;
#X obj 790 386 line~;
#X obj 790 259 trigger b f;
#X obj 790 297 f;
#X obj 839 319 r fi;
#X obj 906 319 r fo;
#X obj 715 298 line~;
#X obj 746 208 r glide;
#X obj 711 271 pack 220 10;
#X obj 943 318 osc~;
#X obj 943 204 unpack 0 0;
#X obj 941 419 *~;
#X obj 999 357 line~;
#X obj 999 230 trigger b f;
#X obj 999 318 pack 1 10;
#X obj 1072 315 pack 0 5;
#X obj 999 268 f;
#X obj 1048 290 r fi;
#X obj 1115 290 r fo;
#X obj 924 269 line~;
#X obj 955 179 r glide;
#X obj 920 242 pack 220 10;
#X obj 347 350 pack 1 15;
#X obj 420 347 pack 0 10;
#X obj 577 350 pack 1 20;
#X obj 650 347 pack 0 15;
#X obj 790 347 pack 1 25;
#X obj 863 344 pack 0 20;
#X connect 0 0 2 0;
#X connect 1 0 36 0;
#X connect 1 1 5 0;
#X connect 2 0 9 0;
#X connect 3 0 2 1;
#X connect 4 0 14 0;
#X connect 5 0 4 0;
#X connect 5 0 69 0;
#X connect 5 1 4 1;
#X connect 6 0 14 1;
#X connect 7 0 20 1;
#X connect 8 0 10 0;
#X connect 10 0 22 0;
#X connect 10 1 13 0;
#X connect 11 0 43 0;
#X connect 13 0 11 1;
#X connect 13 1 11 2;
#X connect 14 0 3 0;
#X connect 15 0 17 0;
#X connect 16 0 39 0;
#X connect 16 1 19 0;
#X connect 17 0 9 0;
#X connect 18 0 17 1;
#X connect 19 0 21 0;
#X connect 19 0 71 0;
#X connect 19 1 21 1;
#X connect 20 0 3 0;
#X connect 21 0 68 0;
#X connect 22 0 11 0;
#X connect 23 0 68 1;
#X connect 24 0 69 1;
#X connect 25 0 27 0;
#X connect 26 0 42 0;
#X connect 26 1 29 0;
#X connect 27 0 9 0;
#X connect 28 0 27 1;
#X connect 29 0 30 0;
#X connect 29 0 73 0;
#X connect 29 1 30 1;
#X connect 30 0 70 0;
#X connect 31 0 70 1;
#X connect 32 0 71 1;
#X connect 34 0 0 0;
#X connect 35 0 36 1;
#X connect 36 0 34 0;
#X connect 37 0 15 0;
#X connect 38 0 39 1;
#X connect 39 0 37 0;
#X connect 40 0 25 0;
#X connect 41 0 42 1;
#X connect 42 0 40 0;
#X connect 43 0 1 0;
#X connect 43 1 16 0;
#X connect 43 2 26 0;
#X connect 43 3 45 0;
#X connect 43 4 56 0;
#X connect 44 0 46 0;
#X connect 45 0 54 0;
#X connect 45 1 48 0;
#X connect 46 0 9 0;
#X connect 47 0 46 1;
#X connect 48 0 49 0;
#X connect 48 0 61 0;
#X connect 48 1 49 1;
#X connect 49 0 72 0;
#X connect 50 0 72 1;
#X connect 51 0 73 1;
#X connect 52 0 44 0;
#X connect 53 0 54 1;
#X connect 54 0 52 0;
#X connect 55 0 57 0;
#X connect 56 0 67 0;
#X connect 56 1 59 0;
#X connect 57 0 9 0;
#X connect 58 0 57 1;
#X connect 59 0 62 0;
#X connect 59 0 20 0;
#X connect 59 1 62 1;
#X connect 60 0 58 0;
#X connect 61 0 58 0;
#X connect 62 0 60 0;
#X connect 63 0 60 1;
#X connect 64 0 61 1;
#X connect 65 0 55 0;
#X connect 66 0 67 1;
#X connect 67 0 65 0;
#X connect 68 0 18 0;
#X connect 69 0 18 0;
#X connect 70 0 28 0;
#X connect 71 0 28 0;
#X connect 72 0 47 0;
#X connect 73 0 47 0;
#X restore 263 352 pd;
#N canvas 64 153 1154 584 (subpatch) 0;
#X obj 50 354 osc~;
#X obj 51 239 unpack 0 0;
#X obj 50 434 *~;
#X obj 106 393 line~;
#X obj 107 307 f;
#X obj 107 276 trigger b f;
#X obj 158 326 r fi;
#X obj 230 325 r fo;
#X obj 52 8 inlet;
#X obj 289 526 outlet~;
#X obj 52 36 t b l;
#X obj 52 103 pack 0 0 0;
#X obj 544 535 print;
#X obj 133 68 unpack 0 0;
#X obj 107 353 pack 1 10;
#X obj 290 350 osc~;
#X obj 291 236 unpack 0 0;
#X obj 290 432 *~;
#X obj 347 389 line~;
#X obj 347 265 trigger b f;
#X obj 180 353 pack 0 20;
#X obj 347 300 f;
#N canvas 0 23 450 300 counter3 0;
#X msg 191 82 1;
#X obj 189 158 wrap;
#X obj 189 181 * 3;
#X obj 191 109 / 3;
#X obj 189 132 +;
#X obj 195 40 inlet;
#X obj 191 217 outlet;
#X connect 0 0 3 0;
#X connect 1 0 2 0;
#X connect 1 0 4 1;
#X connect 2 0 6 0;
#X connect 3 0 4 0;
#X connect 4 0 1 0;
#X connect 5 0 0 0;
#X restore 52 68 pd counter3;
#X obj 398 321 r fi;
#X obj 463 322 r fo;
#X obj 521 350 osc~;
#X obj 521 236 unpack 0 0;
#X obj 521 432 *~;
#X obj 577 389 line~;
#X obj 577 262 trigger b f;
#X obj 577 300 f;
#X obj 626 322 r fi;
#X obj 693 322 r fo;
#X text 273 26 wenn voice 0 eingefadet wird \, wird voice 1 ausgefadet
und voice 2 kann weiterklingen (weil es die vorherige stimme ist. damit
erzeugt man ein maximales overlapp von 3 und ein minimales overlap
von 2;
#X obj 32 301 line~;
#X obj 63 211 r glide;
#X obj 28 274 pack 220 10;
#X obj 272 301 line~;
#X obj 303 211 r glide;
#X obj 268 274 pack 220 10;
#X obj 502 301 line~;
#X obj 533 211 r glide;
#X obj 498 274 pack 220 10;
#X obj 114 130 route 0 1 2 3 4;
#X obj 734 347 osc~;
#X obj 734 233 unpack 0 0;
#X obj 734 429 *~;
#X obj 790 386 line~;
#X obj 790 259 trigger b f;
#X obj 790 297 f;
#X obj 839 319 r fi;
#X obj 906 319 r fo;
#X obj 715 298 line~;
#X obj 746 208 r glide;
#X obj 711 271 pack 220 10;
#X obj 943 318 osc~;
#X obj 943 204 unpack 0 0;
#X obj 941 419 *~;
#X obj 999 357 line~;
#X obj 999 230 trigger b f;
#X obj 999 318 pack 1 10;
#X obj 1072 315 pack 0 5;
#X obj 999 268 f;
#X obj 1048 290 r fi;
#X obj 1115 290 r fo;
#X obj 924 269 line~;
#X obj 955 179 r glide;
#X obj 920 242 pack 220 10;
#X obj 347 350 pack 1 15;
#X obj 420 347 pack 0 10;
#X obj 577 350 pack 1 20;
#X obj 650 347 pack 0 15;
#X obj 790 347 pack 1 25;
#X obj 863 344 pack 0 20;
#X connect 0 0 2 0;
#X connect 1 0 36 0;
#X connect 1 1 5 0;
#X connect 2 0 9 0;
#X connect 3 0 2 1;
#X connect 4 0 14 0;
#X connect 5 0 4 0;
#X connect 5 0 69 0;
#X connect 5 1 4 1;
#X connect 6 0 14 1;
#X connect 7 0 20 1;
#X connect 8 0 10 0;
#X connect 10 0 22 0;
#X connect 10 1 13 0;
#X connect 11 0 43 0;
#X connect 13 0 11 1;
#X connect 13 1 11 2;
#X connect 14 0 3 0;
#X connect 15 0 17 0;
#X connect 16 0 39 0;
#X connect 16 1 19 0;
#X connect 17 0 9 0;
#X connect 18 0 17 1;
#X connect 19 0 21 0;
#X connect 19 0 71 0;
#X connect 19 1 21 1;
#X connect 20 0 3 0;
#X connect 21 0 68 0;
#X connect 22 0 11 0;
#X connect 23 0 68 1;
#X connect 24 0 69 1;
#X connect 25 0 27 0;
#X connect 26 0 42 0;
#X connect 26 1 29 0;
#X connect 27 0 9 0;
#X connect 28 0 27 1;
#X connect 29 0 30 0;
#X connect 29 0 73 0;
#X connect 29 1 30 1;
#X connect 30 0 70 0;
#X connect 31 0 70 1;
#X connect 32 0 71 1;
#X connect 34 0 0 0;
#X connect 35 0 36 1;
#X connect 36 0 34 0;
#X connect 37 0 15 0;
#X connect 38 0 39 1;
#X connect 39 0 37 0;
#X connect 40 0 25 0;
#X connect 41 0 42 1;
#X connect 42 0 40 0;
#X connect 43 0 1 0;
#X connect 43 1 16 0;
#X connect 43 2 26 0;
#X connect 43 3 45 0;
#X connect 43 4 56 0;
#X connect 44 0 46 0;
#X connect 45 0 54 0;
#X connect 45 1 48 0;
#X connect 46 0 9 0;
#X connect 47 0 46 1;
#X connect 48 0 49 0;
#X connect 48 0 61 0;
#X connect 48 1 49 1;
#X connect 49 0 72 0;
#X connect 50 0 72 1;
#X connect 51 0 73 1;
#X connect 52 0 44 0;
#X connect 53 0 54 1;
#X connect 54 0 52 0;
#X connect 55 0 57 0;
#X connect 56 0 67 0;
#X connect 56 1 59 0;
#X connect 57 0 9 0;
#X connect 58 0 57 1;
#X connect 59 0 62 0;
#X connect 59 0 20 0;
#X connect 59 1 62 1;
#X connect 60 0 58 0;
#X connect 61 0 58 0;
#X connect 62 0 60 0;
#X connect 63 0 60 1;
#X connect 64 0 61 1;
#X connect 65 0 55 0;
#X connect 66 0 67 1;
#X connect 67 0 65 0;
#X connect 68 0 18 0;
#X connect 69 0 18 0;
#X connect 70 0 28 0;
#X connect 71 0 28 0;
#X connect 72 0 47 0;
#X connect 73 0 47 0;
#X restore 288 353 pd;
#N canvas 64 153 1154 584 (subpatch) 0;
#X obj 50 354 osc~;
#X obj 51 239 unpack 0 0;
#X obj 50 434 *~;
#X obj 106 393 line~;
#X obj 107 307 f;
#X obj 107 276 trigger b f;
#X obj 158 326 r fi;
#X obj 230 325 r fo;
#X obj 52 8 inlet;
#X obj 289 526 outlet~;
#X obj 52 36 t b l;
#X obj 52 103 pack 0 0 0;
#X obj 544 535 print;
#X obj 133 68 unpack 0 0;
#X obj 107 353 pack 1 10;
#X obj 290 350 osc~;
#X obj 291 236 unpack 0 0;
#X obj 290 432 *~;
#X obj 347 389 line~;
#X obj 347 265 trigger b f;
#X obj 180 353 pack 0 20;
#X obj 347 300 f;
#N canvas 0 23 450 300 counter3 0;
#X msg 191 82 1;
#X obj 189 158 wrap;
#X obj 189 181 * 3;
#X obj 191 109 / 3;
#X obj 189 132 +;
#X obj 195 40 inlet;
#X obj 191 217 outlet;
#X connect 0 0 3 0;
#X connect 1 0 2 0;
#X connect 1 0 4 1;
#X connect 2 0 6 0;
#X connect 3 0 4 0;
#X connect 4 0 1 0;
#X connect 5 0 0 0;
#X restore 52 68 pd counter3;
#X obj 398 321 r fi;
#X obj 463 322 r fo;
#X obj 521 350 osc~;
#X obj 521 236 unpack 0 0;
#X obj 521 432 *~;
#X obj 577 389 line~;
#X obj 577 262 trigger b f;
#X obj 577 300 f;
#X obj 626 322 r fi;
#X obj 693 322 r fo;
#X text 273 26 wenn voice 0 eingefadet wird \, wird voice 1 ausgefadet
und voice 2 kann weiterklingen (weil es die vorherige stimme ist. damit
erzeugt man ein maximales overlapp von 3 und ein minimales overlap
von 2;
#X obj 32 301 line~;
#X obj 63 211 r glide;
#X obj 28 274 pack 220 10;
#X obj 272 301 line~;
#X obj 303 211 r glide;
#X obj 268 274 pack 220 10;
#X obj 502 301 line~;
#X obj 533 211 r glide;
#X obj 498 274 pack 220 10;
#X obj 114 130 route 0 1 2 3 4;
#X obj 734 347 osc~;
#X obj 734 233 unpack 0 0;
#X obj 734 429 *~;
#X obj 790 386 line~;
#X obj 790 259 trigger b f;
#X obj 790 297 f;
#X obj 839 319 r fi;
#X obj 906 319 r fo;
#X obj 715 298 line~;
#X obj 746 208 r glide;
#X obj 711 271 pack 220 10;
#X obj 943 318 osc~;
#X obj 943 204 unpack 0 0;
#X obj 941 419 *~;
#X obj 999 357 line~;
#X obj 999 230 trigger b f;
#X obj 999 318 pack 1 10;
#X obj 1072 315 pack 0 5;
#X obj 999 268 f;
#X obj 1048 290 r fi;
#X obj 1115 290 r fo;
#X obj 924 269 line~;
#X obj 955 179 r glide;
#X obj 920 242 pack 220 10;
#X obj 347 350 pack 1 15;
#X obj 420 347 pack 0 10;
#X obj 577 350 pack 1 20;
#X obj 650 347 pack 0 15;
#X obj 790 347 pack 1 25;
#X obj 863 344 pack 0 20;
#X connect 0 0 2 0;
#X connect 1 0 36 0;
#X connect 1 1 5 0;
#X connect 2 0 9 0;
#X connect 3 0 2 1;
#X connect 4 0 14 0;
#X connect 5 0 4 0;
#X connect 5 0 69 0;
#X connect 5 1 4 1;
#X connect 6 0 14 1;
#X connect 7 0 20 1;
#X connect 8 0 10 0;
#X connect 10 0 22 0;
#X connect 10 1 13 0;
#X connect 11 0 43 0;
#X connect 13 0 11 1;
#X connect 13 1 11 2;
#X connect 14 0 3 0;
#X connect 15 0 17 0;
#X connect 16 0 39 0;
#X connect 16 1 19 0;
#X connect 17 0 9 0;
#X connect 18 0 17 1;
#X connect 19 0 21 0;
#X connect 19 0 71 0;
#X connect 19 1 21 1;
#X connect 20 0 3 0;
#X connect 21 0 68 0;
#X connect 22 0 11 0;
#X connect 23 0 68 1;
#X connect 24 0 69 1;
#X connect 25 0 27 0;
#X connect 26 0 42 0;
#X connect 26 1 29 0;
#X connect 27 0 9 0;
#X connect 28 0 27 1;
#X connect 29 0 30 0;
#X connect 29 0 73 0;
#X connect 29 1 30 1;
#X connect 30 0 70 0;
#X connect 31 0 70 1;
#X connect 32 0 71 1;
#X connect 34 0 0 0;
#X connect 35 0 36 1;
#X connect 36 0 34 0;
#X connect 37 0 15 0;
#X connect 38 0 39 1;
#X connect 39 0 37 0;
#X connect 40 0 25 0;
#X connect 41 0 42 1;
#X connect 42 0 40 0;
#X connect 43 0 1 0;
#X connect 43 1 16 0;
#X connect 43 2 26 0;
#X connect 43 3 45 0;
#X connect 43 4 56 0;
#X connect 44 0 46 0;
#X connect 45 0 54 0;
#X connect 45 1 48 0;
#X connect 46 0 9 0;
#X connect 47 0 46 1;
#X connect 48 0 49 0;
#X connect 48 0 61 0;
#X connect 48 1 49 1;
#X connect 49 0 72 0;
#X connect 50 0 72 1;
#X connect 51 0 73 1;
#X connect 52 0 44 0;
#X connect 53 0 54 1;
#X connect 54 0 52 0;
#X connect 55 0 57 0;
#X connect 56 0 67 0;
#X connect 56 1 59 0;
#X connect 57 0 9 0;
#X connect 58 0 57 1;
#X connect 59 0 62 0;
#X connect 59 0 20 0;
#X connect 59 1 62 1;
#X connect 60 0 58 0;
#X connect 61 0 58 0;
#X connect 62 0 60 0;
#X connect 63 0 60 1;
#X connect 64 0 61 1;
#X connect 65 0 55 0;
#X connect 66 0 67 1;
#X connect 67 0 65 0;
#X connect 68 0 18 0;
#X connect 69 0 18 0;
#X connect 70 0 28 0;
#X connect 71 0 28 0;
#X connect 72 0 47 0;
#X connect 73 0 47 0;
#X restore 311 353 pd;
#N canvas 64 153 1154 584 (subpatch) 0;
#X obj 50 354 osc~;
#X obj 51 239 unpack 0 0;
#X obj 50 434 *~;
#X obj 106 393 line~;
#X obj 107 307 f;
#X obj 107 276 trigger b f;
#X obj 158 326 r fi;
#X obj 230 325 r fo;
#X obj 52 8 inlet;
#X obj 289 526 outlet~;
#X obj 52 36 t b l;
#X obj 52 103 pack 0 0 0;
#X obj 544 535 print;
#X obj 133 68 unpack 0 0;
#X obj 107 353 pack 1 10;
#X obj 290 350 osc~;
#X obj 291 236 unpack 0 0;
#X obj 290 432 *~;
#X obj 347 389 line~;
#X obj 347 265 trigger b f;
#X obj 180 353 pack 0 20;
#X obj 347 300 f;
#N canvas 0 23 450 300 counter3 0;
#X msg 191 82 1;
#X obj 189 158 wrap;
#X obj 189 181 * 3;
#X obj 191 109 / 3;
#X obj 189 132 +;
#X obj 195 40 inlet;
#X obj 191 217 outlet;
#X connect 0 0 3 0;
#X connect 1 0 2 0;
#X connect 1 0 4 1;
#X connect 2 0 6 0;
#X connect 3 0 4 0;
#X connect 4 0 1 0;
#X connect 5 0 0 0;
#X restore 52 68 pd counter3;
#X obj 398 321 r fi;
#X obj 463 322 r fo;
#X obj 521 350 osc~;
#X obj 521 236 unpack 0 0;
#X obj 521 432 *~;
#X obj 577 389 line~;
#X obj 577 262 trigger b f;
#X obj 577 300 f;
#X obj 626 322 r fi;
#X obj 693 322 r fo;
#X text 273 26 wenn voice 0 eingefadet wird \, wird voice 1 ausgefadet
und voice 2 kann weiterklingen (weil es die vorherige stimme ist. damit
erzeugt man ein maximales overlapp von 3 und ein minimales overlap
von 2;
#X obj 32 301 line~;
#X obj 63 211 r glide;
#X obj 28 274 pack 220 10;
#X obj 272 301 line~;
#X obj 303 211 r glide;
#X obj 268 274 pack 220 10;
#X obj 502 301 line~;
#X obj 533 211 r glide;
#X obj 498 274 pack 220 10;
#X obj 114 130 route 0 1 2 3 4;
#X obj 734 347 osc~;
#X obj 734 233 unpack 0 0;
#X obj 734 429 *~;
#X obj 790 386 line~;
#X obj 790 259 trigger b f;
#X obj 790 297 f;
#X obj 839 319 r fi;
#X obj 906 319 r fo;
#X obj 715 298 line~;
#X obj 746 208 r glide;
#X obj 711 271 pack 220 10;
#X obj 943 318 osc~;
#X obj 943 204 unpack 0 0;
#X obj 941 419 *~;
#X obj 999 357 line~;
#X obj 999 230 trigger b f;
#X obj 999 318 pack 1 10;
#X obj 1072 315 pack 0 5;
#X obj 999 268 f;
#X obj 1048 290 r fi;
#X obj 1115 290 r fo;
#X obj 924 269 line~;
#X obj 955 179 r glide;
#X obj 920 242 pack 220 10;
#X obj 347 350 pack 1 15;
#X obj 420 347 pack 0 10;
#X obj 577 350 pack 1 20;
#X obj 650 347 pack 0 15;
#X obj 790 347 pack 1 25;
#X obj 863 344 pack 0 20;
#X connect 0 0 2 0;
#X connect 1 0 36 0;
#X connect 1 1 5 0;
#X connect 2 0 9 0;
#X connect 3 0 2 1;
#X connect 4 0 14 0;
#X connect 5 0 4 0;
#X connect 5 0 69 0;
#X connect 5 1 4 1;
#X connect 6 0 14 1;
#X connect 7 0 20 1;
#X connect 8 0 10 0;
#X connect 10 0 22 0;
#X connect 10 1 13 0;
#X connect 11 0 43 0;
#X connect 13 0 11 1;
#X connect 13 1 11 2;
#X connect 14 0 3 0;
#X connect 15 0 17 0;
#X connect 16 0 39 0;
#X connect 16 1 19 0;
#X connect 17 0 9 0;
#X connect 18 0 17 1;
#X connect 19 0 21 0;
#X connect 19 0 71 0;
#X connect 19 1 21 1;
#X connect 20 0 3 0;
#X connect 21 0 68 0;
#X connect 22 0 11 0;
#X connect 23 0 68 1;
#X connect 24 0 69 1;
#X connect 25 0 27 0;
#X connect 26 0 42 0;
#X connect 26 1 29 0;
#X connect 27 0 9 0;
#X connect 28 0 27 1;
#X connect 29 0 30 0;
#X connect 29 0 73 0;
#X connect 29 1 30 1;
#X connect 30 0 70 0;
#X connect 31 0 70 1;
#X connect 32 0 71 1;
#X connect 34 0 0 0;
#X connect 35 0 36 1;
#X connect 36 0 34 0;
#X connect 37 0 15 0;
#X connect 38 0 39 1;
#X connect 39 0 37 0;
#X connect 40 0 25 0;
#X connect 41 0 42 1;
#X connect 42 0 40 0;
#X connect 43 0 1 0;
#X connect 43 1 16 0;
#X connect 43 2 26 0;
#X connect 43 3 45 0;
#X connect 43 4 56 0;
#X connect 44 0 46 0;
#X connect 45 0 54 0;
#X connect 45 1 48 0;
#X connect 46 0 9 0;
#X connect 47 0 46 1;
#X connect 48 0 49 0;
#X connect 48 0 61 0;
#X connect 48 1 49 1;
#X connect 49 0 72 0;
#X connect 50 0 72 1;
#X connect 51 0 73 1;
#X connect 52 0 44 0;
#X connect 53 0 54 1;
#X connect 54 0 52 0;
#X connect 55 0 57 0;
#X connect 56 0 67 0;
#X connect 56 1 59 0;
#X connect 57 0 9 0;
#X connect 58 0 57 1;
#X connect 59 0 62 0;
#X connect 59 0 20 0;
#X connect 59 1 62 1;
#X connect 60 0 58 0;
#X connect 61 0 58 0;
#X connect 62 0 60 0;
#X connect 63 0 60 1;
#X connect 64 0 61 1;
#X connect 65 0 55 0;
#X connect 66 0 67 1;
#X connect 67 0 65 0;
#X connect 68 0 18 0;
#X connect 69 0 18 0;
#X connect 70 0 28 0;
#X connect 71 0 28 0;
#X connect 72 0 47 0;
#X connect 73 0 47 0;
#X restore 335 353 pd;
#N canvas 64 153 1154 584 (subpatch) 0;
#X obj 50 354 osc~;
#X obj 51 239 unpack 0 0;
#X obj 50 434 *~;
#X obj 106 393 line~;
#X obj 107 307 f;
#X obj 107 276 trigger b f;
#X obj 158 326 r fi;
#X obj 230 325 r fo;
#X obj 52 8 inlet;
#X obj 289 526 outlet~;
#X obj 52 36 t b l;
#X obj 52 103 pack 0 0 0;
#X obj 544 535 print;
#X obj 133 68 unpack 0 0;
#X obj 107 353 pack 1 10;
#X obj 290 350 osc~;
#X obj 291 236 unpack 0 0;
#X obj 290 432 *~;
#X obj 347 389 line~;
#X obj 347 265 trigger b f;
#X obj 180 353 pack 0 20;
#X obj 347 300 f;
#N canvas 0 23 450 300 counter3 0;
#X msg 191 82 1;
#X obj 189 158 wrap;
#X obj 189 181 * 3;
#X obj 191 109 / 3;
#X obj 189 132 +;
#X obj 195 40 inlet;
#X obj 191 217 outlet;
#X connect 0 0 3 0;
#X connect 1 0 2 0;
#X connect 1 0 4 1;
#X connect 2 0 6 0;
#X connect 3 0 4 0;
#X connect 4 0 1 0;
#X connect 5 0 0 0;
#X restore 52 68 pd counter3;
#X obj 398 321 r fi;
#X obj 463 322 r fo;
#X obj 521 350 osc~;
#X obj 521 236 unpack 0 0;
#X obj 521 432 *~;
#X obj 577 389 line~;
#X obj 577 262 trigger b f;
#X obj 577 300 f;
#X obj 626 322 r fi;
#X obj 693 322 r fo;
#X text 273 26 wenn voice 0 eingefadet wird \, wird voice 1 ausgefadet
und voice 2 kann weiterklingen (weil es die vorherige stimme ist. damit
erzeugt man ein maximales overlapp von 3 und ein minimales overlap
von 2;
#X obj 32 301 line~;
#X obj 63 211 r glide;
#X obj 28 274 pack 220 10;
#X obj 272 301 line~;
#X obj 303 211 r glide;
#X obj 268 274 pack 220 10;
#X obj 502 301 line~;
#X obj 533 211 r glide;
#X obj 498 274 pack 220 10;
#X obj 114 130 route 0 1 2 3 4;
#X obj 734 347 osc~;
#X obj 734 233 unpack 0 0;
#X obj 734 429 *~;
#X obj 790 386 line~;
#X obj 790 259 trigger b f;
#X obj 790 297 f;
#X obj 839 319 r fi;
#X obj 906 319 r fo;
#X obj 715 298 line~;
#X obj 746 208 r glide;
#X obj 711 271 pack 220 10;
#X obj 943 318 osc~;
#X obj 943 204 unpack 0 0;
#X obj 941 419 *~;
#X obj 999 357 line~;
#X obj 999 230 trigger b f;
#X obj 999 318 pack 1 10;
#X obj 1072 315 pack 0 5;
#X obj 999 268 f;
#X obj 1048 290 r fi;
#X obj 1115 290 r fo;
#X obj 924 269 line~;
#X obj 955 179 r glide;
#X obj 920 242 pack 220 10;
#X obj 347 350 pack 1 15;
#X obj 420 347 pack 0 10;
#X obj 577 350 pack 1 20;
#X obj 650 347 pack 0 15;
#X obj 790 347 pack 1 25;
#X obj 863 344 pack 0 20;
#X connect 0 0 2 0;
#X connect 1 0 36 0;
#X connect 1 1 5 0;
#X connect 2 0 9 0;
#X connect 3 0 2 1;
#X connect 4 0 14 0;
#X connect 5 0 4 0;
#X connect 5 0 69 0;
#X connect 5 1 4 1;
#X connect 6 0 14 1;
#X connect 7 0 20 1;
#X connect 8 0 10 0;
#X connect 10 0 22 0;
#X connect 10 1 13 0;
#X connect 11 0 43 0;
#X connect 13 0 11 1;
#X connect 13 1 11 2;
#X connect 14 0 3 0;
#X connect 15 0 17 0;
#X connect 16 0 39 0;
#X connect 16 1 19 0;
#X connect 17 0 9 0;
#X connect 18 0 17 1;
#X connect 19 0 21 0;
#X connect 19 0 71 0;
#X connect 19 1 21 1;
#X connect 20 0 3 0;
#X connect 21 0 68 0;
#X connect 22 0 11 0;
#X connect 23 0 68 1;
#X connect 24 0 69 1;
#X connect 25 0 27 0;
#X connect 26 0 42 0;
#X connect 26 1 29 0;
#X connect 27 0 9 0;
#X connect 28 0 27 1;
#X connect 29 0 30 0;
#X connect 29 0 73 0;
#X connect 29 1 30 1;
#X connect 30 0 70 0;
#X connect 31 0 70 1;
#X connect 32 0 71 1;
#X connect 34 0 0 0;
#X connect 35 0 36 1;
#X connect 36 0 34 0;
#X connect 37 0 15 0;
#X connect 38 0 39 1;
#X connect 39 0 37 0;
#X connect 40 0 25 0;
#X connect 41 0 42 1;
#X connect 42 0 40 0;
#X connect 43 0 1 0;
#X connect 43 1 16 0;
#X connect 43 2 26 0;
#X connect 43 3 45 0;
#X connect 43 4 56 0;
#X connect 44 0 46 0;
#X connect 45 0 54 0;
#X connect 45 1 48 0;
#X connect 46 0 9 0;
#X connect 47 0 46 1;
#X connect 48 0 49 0;
#X connect 48 0 61 0;
#X connect 48 1 49 1;
#X connect 49 0 72 0;
#X connect 50 0 72 1;
#X connect 51 0 73 1;
#X connect 52 0 44 0;
#X connect 53 0 54 1;
#X connect 54 0 52 0;
#X connect 55 0 57 0;
#X connect 56 0 67 0;
#X connect 56 1 59 0;
#X connect 57 0 9 0;
#X connect 58 0 57 1;
#X connect 59 0 62 0;
#X connect 59 0 20 0;
#X connect 59 1 62 1;
#X connect 60 0 58 0;
#X connect 61 0 58 0;
#X connect 62 0 60 0;
#X connect 63 0 60 1;
#X connect 64 0 61 1;
#X connect 65 0 55 0;
#X connect 66 0 67 1;
#X connect 67 0 65 0;
#X connect 68 0 18 0;
#X connect 69 0 18 0;
#X connect 70 0 28 0;
#X connect 71 0 28 0;
#X connect 72 0 47 0;
#X connect 73 0 47 0;
#X restore 360 352 pd;
#N canvas 64 153 1154 584 (subpatch) 0;
#X obj 50 354 osc~;
#X obj 51 239 unpack 0 0;
#X obj 50 434 *~;
#X obj 106 393 line~;
#X obj 107 307 f;
#X obj 107 276 trigger b f;
#X obj 158 326 r fi;
#X obj 230 325 r fo;
#X obj 52 8 inlet;
#X obj 289 526 outlet~;
#X obj 52 36 t b l;
#X obj 52 103 pack 0 0 0;
#X obj 544 535 print;
#X obj 133 68 unpack 0 0;
#X obj 107 353 pack 1 10;
#X obj 290 350 osc~;
#X obj 291 236 unpack 0 0;
#X obj 290 432 *~;
#X obj 347 389 line~;
#X obj 347 265 trigger b f;
#X obj 180 353 pack 0 20;
#X obj 347 300 f;
#N canvas 0 23 450 300 counter3 0;
#X msg 191 82 1;
#X obj 189 158 wrap;
#X obj 189 181 * 3;
#X obj 191 109 / 3;
#X obj 189 132 +;
#X obj 195 40 inlet;
#X obj 191 217 outlet;
#X connect 0 0 3 0;
#X connect 1 0 2 0;
#X connect 1 0 4 1;
#X connect 2 0 6 0;
#X connect 3 0 4 0;
#X connect 4 0 1 0;
#X connect 5 0 0 0;
#X restore 52 68 pd counter3;
#X obj 398 321 r fi;
#X obj 463 322 r fo;
#X obj 521 350 osc~;
#X obj 521 236 unpack 0 0;
#X obj 521 432 *~;
#X obj 577 389 line~;
#X obj 577 262 trigger b f;
#X obj 577 300 f;
#X obj 626 322 r fi;
#X obj 693 322 r fo;
#X text 273 26 wenn voice 0 eingefadet wird \, wird voice 1 ausgefadet
und voice 2 kann weiterklingen (weil es die vorherige stimme ist. damit
erzeugt man ein maximales overlapp von 3 und ein minimales overlap
von 2;
#X obj 32 301 line~;
#X obj 63 211 r glide;
#X obj 28 274 pack 220 10;
#X obj 272 301 line~;
#X obj 303 211 r glide;
#X obj 268 274 pack 220 10;
#X obj 502 301 line~;
#X obj 533 211 r glide;
#X obj 498 274 pack 220 10;
#X obj 114 130 route 0 1 2 3 4;
#X obj 734 347 osc~;
#X obj 734 233 unpack 0 0;
#X obj 734 429 *~;
#X obj 790 386 line~;
#X obj 790 259 trigger b f;
#X obj 790 297 f;
#X obj 839 319 r fi;
#X obj 906 319 r fo;
#X obj 715 298 line~;
#X obj 746 208 r glide;
#X obj 711 271 pack 220 10;
#X obj 943 318 osc~;
#X obj 943 204 unpack 0 0;
#X obj 941 419 *~;
#X obj 999 357 line~;
#X obj 999 230 trigger b f;
#X obj 999 318 pack 1 10;
#X obj 1072 315 pack 0 5;
#X obj 999 268 f;
#X obj 1048 290 r fi;
#X obj 1115 290 r fo;
#X obj 924 269 line~;
#X obj 955 179 r glide;
#X obj 920 242 pack 220 10;
#X obj 347 350 pack 1 15;
#X obj 420 347 pack 0 10;
#X obj 577 350 pack 1 20;
#X obj 650 347 pack 0 15;
#X obj 790 347 pack 1 25;
#X obj 863 344 pack 0 20;
#X connect 0 0 2 0;
#X connect 1 0 36 0;
#X connect 1 1 5 0;
#X connect 2 0 9 0;
#X connect 3 0 2 1;
#X connect 4 0 14 0;
#X connect 5 0 4 0;
#X connect 5 0 69 0;
#X connect 5 1 4 1;
#X connect 6 0 14 1;
#X connect 7 0 20 1;
#X connect 8 0 10 0;
#X connect 10 0 22 0;
#X connect 10 1 13 0;
#X connect 11 0 43 0;
#X connect 13 0 11 1;
#X connect 13 1 11 2;
#X connect 14 0 3 0;
#X connect 15 0 17 0;
#X connect 16 0 39 0;
#X connect 16 1 19 0;
#X connect 17 0 9 0;
#X connect 18 0 17 1;
#X connect 19 0 21 0;
#X connect 19 0 71 0;
#X connect 19 1 21 1;
#X connect 20 0 3 0;
#X connect 21 0 68 0;
#X connect 22 0 11 0;
#X connect 23 0 68 1;
#X connect 24 0 69 1;
#X connect 25 0 27 0;
#X connect 26 0 42 0;
#X connect 26 1 29 0;
#X connect 27 0 9 0;
#X connect 28 0 27 1;
#X connect 29 0 30 0;
#X connect 29 0 73 0;
#X connect 29 1 30 1;
#X connect 30 0 70 0;
#X connect 31 0 70 1;
#X connect 32 0 71 1;
#X connect 34 0 0 0;
#X connect 35 0 36 1;
#X connect 36 0 34 0;
#X connect 37 0 15 0;
#X connect 38 0 39 1;
#X connect 39 0 37 0;
#X connect 40 0 25 0;
#X connect 41 0 42 1;
#X connect 42 0 40 0;
#X connect 43 0 1 0;
#X connect 43 1 16 0;
#X connect 43 2 26 0;
#X connect 43 3 45 0;
#X connect 43 4 56 0;
#X connect 44 0 46 0;
#X connect 45 0 54 0;
#X connect 45 1 48 0;
#X connect 46 0 9 0;
#X connect 47 0 46 1;
#X connect 48 0 49 0;
#X connect 48 0 61 0;
#X connect 48 1 49 1;
#X connect 49 0 72 0;
#X connect 50 0 72 1;
#X connect 51 0 73 1;
#X connect 52 0 44 0;
#X connect 53 0 54 1;
#X connect 54 0 52 0;
#X connect 55 0 57 0;
#X connect 56 0 67 0;
#X connect 56 1 59 0;
#X connect 57 0 9 0;
#X connect 58 0 57 1;
#X connect 59 0 62 0;
#X connect 59 0 20 0;
#X connect 59 1 62 1;
#X connect 60 0 58 0;
#X connect 61 0 58 0;
#X connect 62 0 60 0;
#X connect 63 0 60 1;
#X connect 64 0 61 1;
#X connect 65 0 55 0;
#X connect 66 0 67 1;
#X connect 67 0 65 0;
#X connect 68 0 18 0;
#X connect 69 0 18 0;
#X connect 70 0 28 0;
#X connect 71 0 28 0;
#X connect 72 0 47 0;
#X connect 73 0 47 0;
#X restore 384 353 pd;
#N canvas 64 153 1154 584 (subpatch) 0;
#X obj 50 354 osc~;
#X obj 51 239 unpack 0 0;
#X obj 50 434 *~;
#X obj 106 393 line~;
#X obj 107 307 f;
#X obj 107 276 trigger b f;
#X obj 158 326 r fi;
#X obj 230 325 r fo;
#X obj 52 8 inlet;
#X obj 289 526 outlet~;
#X obj 52 36 t b l;
#X obj 52 103 pack 0 0 0;
#X obj 544 535 print;
#X obj 133 68 unpack 0 0;
#X obj 107 353 pack 1 10;
#X obj 290 350 osc~;
#X obj 291 236 unpack 0 0;
#X obj 290 432 *~;
#X obj 347 389 line~;
#X obj 347 265 trigger b f;
#X obj 180 353 pack 0 20;
#X obj 347 300 f;
#N canvas 0 23 450 300 counter3 0;
#X msg 191 82 1;
#X obj 189 158 wrap;
#X obj 189 181 * 3;
#X obj 191 109 / 3;
#X obj 189 132 +;
#X obj 195 40 inlet;
#X obj 191 217 outlet;
#X connect 0 0 3 0;
#X connect 1 0 2 0;
#X connect 1 0 4 1;
#X connect 2 0 6 0;
#X connect 3 0 4 0;
#X connect 4 0 1 0;
#X connect 5 0 0 0;
#X restore 52 68 pd counter3;
#X obj 398 321 r fi;
#X obj 463 322 r fo;
#X obj 521 350 osc~;
#X obj 521 236 unpack 0 0;
#X obj 521 432 *~;
#X obj 577 389 line~;
#X obj 577 262 trigger b f;
#X obj 577 300 f;
#X obj 626 322 r fi;
#X obj 693 322 r fo;
#X text 273 26 wenn voice 0 eingefadet wird \, wird voice 1 ausgefadet
und voice 2 kann weiterklingen (weil es die vorherige stimme ist. damit
erzeugt man ein maximales overlapp von 3 und ein minimales overlap
von 2;
#X obj 32 301 line~;
#X obj 63 211 r glide;
#X obj 28 274 pack 220 10;
#X obj 272 301 line~;
#X obj 303 211 r glide;
#X obj 268 274 pack 220 10;
#X obj 502 301 line~;
#X obj 533 211 r glide;
#X obj 498 274 pack 220 10;
#X obj 114 130 route 0 1 2 3 4;
#X obj 734 347 osc~;
#X obj 734 233 unpack 0 0;
#X obj 734 429 *~;
#X obj 790 386 line~;
#X obj 790 259 trigger b f;
#X obj 790 297 f;
#X obj 839 319 r fi;
#X obj 906 319 r fo;
#X obj 715 298 line~;
#X obj 746 208 r glide;
#X obj 711 271 pack 220 10;
#X obj 943 318 osc~;
#X obj 943 204 unpack 0 0;
#X obj 941 419 *~;
#X obj 999 357 line~;
#X obj 999 230 trigger b f;
#X obj 999 318 pack 1 10;
#X obj 1072 315 pack 0 5;
#X obj 999 268 f;
#X obj 1048 290 r fi;
#X obj 1115 290 r fo;
#X obj 924 269 line~;
#X obj 955 179 r glide;
#X obj 920 242 pack 220 10;
#X obj 347 350 pack 1 15;
#X obj 420 347 pack 0 10;
#X obj 577 350 pack 1 20;
#X obj 650 347 pack 0 15;
#X obj 790 347 pack 1 25;
#X obj 863 344 pack 0 20;
#X connect 0 0 2 0;
#X connect 1 0 36 0;
#X connect 1 1 5 0;
#X connect 2 0 9 0;
#X connect 3 0 2 1;
#X connect 4 0 14 0;
#X connect 5 0 4 0;
#X connect 5 0 69 0;
#X connect 5 1 4 1;
#X connect 6 0 14 1;
#X connect 7 0 20 1;
#X connect 8 0 10 0;
#X connect 10 0 22 0;
#X connect 10 1 13 0;
#X connect 11 0 43 0;
#X connect 13 0 11 1;
#X connect 13 1 11 2;
#X connect 14 0 3 0;
#X connect 15 0 17 0;
#X connect 16 0 39 0;
#X connect 16 1 19 0;
#X connect 17 0 9 0;
#X connect 18 0 17 1;
#X connect 19 0 21 0;
#X connect 19 0 71 0;
#X connect 19 1 21 1;
#X connect 20 0 3 0;
#X connect 21 0 68 0;
#X connect 22 0 11 0;
#X connect 23 0 68 1;
#X connect 24 0 69 1;
#X connect 25 0 27 0;
#X connect 26 0 42 0;
#X connect 26 1 29 0;
#X connect 27 0 9 0;
#X connect 28 0 27 1;
#X connect 29 0 30 0;
#X connect 29 0 73 0;
#X connect 29 1 30 1;
#X connect 30 0 70 0;
#X connect 31 0 70 1;
#X connect 32 0 71 1;
#X connect 34 0 0 0;
#X connect 35 0 36 1;
#X connect 36 0 34 0;
#X connect 37 0 15 0;
#X connect 38 0 39 1;
#X connect 39 0 37 0;
#X connect 40 0 25 0;
#X connect 41 0 42 1;
#X connect 42 0 40 0;
#X connect 43 0 1 0;
#X connect 43 1 16 0;
#X connect 43 2 26 0;
#X connect 43 3 45 0;
#X connect 43 4 56 0;
#X connect 44 0 46 0;
#X connect 45 0 54 0;
#X connect 45 1 48 0;
#X connect 46 0 9 0;
#X connect 47 0 46 1;
#X connect 48 0 49 0;
#X connect 48 0 61 0;
#X connect 48 1 49 1;
#X connect 49 0 72 0;
#X connect 50 0 72 1;
#X connect 51 0 73 1;
#X connect 52 0 44 0;
#X connect 53 0 54 1;
#X connect 54 0 52 0;
#X connect 55 0 57 0;
#X connect 56 0 67 0;
#X connect 56 1 59 0;
#X connect 57 0 9 0;
#X connect 58 0 57 1;
#X connect 59 0 62 0;
#X connect 59 0 20 0;
#X connect 59 1 62 1;
#X connect 60 0 58 0;
#X connect 61 0 58 0;
#X connect 62 0 60 0;
#X connect 63 0 60 1;
#X connect 64 0 61 1;
#X connect 65 0 55 0;
#X connect 66 0 67 1;
#X connect 67 0 65 0;
#X connect 68 0 18 0;
#X connect 69 0 18 0;
#X connect 70 0 28 0;
#X connect 71 0 28 0;
#X connect 72 0 47 0;
#X connect 73 0 47 0;
#X restore 409 353 pd;
#N canvas 64 153 1154 584 (subpatch) 0;
#X obj 50 354 osc~;
#X obj 51 239 unpack 0 0;
#X obj 50 434 *~;
#X obj 106 393 line~;
#X obj 107 307 f;
#X obj 107 276 trigger b f;
#X obj 158 326 r fi;
#X obj 230 325 r fo;
#X obj 52 8 inlet;
#X obj 289 526 outlet~;
#X obj 52 36 t b l;
#X obj 52 103 pack 0 0 0;
#X obj 544 535 print;
#X obj 133 68 unpack 0 0;
#X obj 107 353 pack 1 10;
#X obj 290 350 osc~;
#X obj 291 236 unpack 0 0;
#X obj 290 432 *~;
#X obj 347 389 line~;
#X obj 347 265 trigger b f;
#X obj 180 353 pack 0 20;
#X obj 347 300 f;
#N canvas 0 23 450 300 counter3 0;
#X msg 191 82 1;
#X obj 189 158 wrap;
#X obj 189 181 * 3;
#X obj 191 109 / 3;
#X obj 189 132 +;
#X obj 195 40 inlet;
#X obj 191 217 outlet;
#X connect 0 0 3 0;
#X connect 1 0 2 0;
#X connect 1 0 4 1;
#X connect 2 0 6 0;
#X connect 3 0 4 0;
#X connect 4 0 1 0;
#X connect 5 0 0 0;
#X restore 52 68 pd counter3;
#X obj 398 321 r fi;
#X obj 463 322 r fo;
#X obj 521 350 osc~;
#X obj 521 236 unpack 0 0;
#X obj 521 432 *~;
#X obj 577 389 line~;
#X obj 577 262 trigger b f;
#X obj 577 300 f;
#X obj 626 322 r fi;
#X obj 693 322 r fo;
#X text 273 26 wenn voice 0 eingefadet wird \, wird voice 1 ausgefadet
und voice 2 kann weiterklingen (weil es die vorherige stimme ist. damit
erzeugt man ein maximales overlapp von 3 und ein minimales overlap
von 2;
#X obj 32 301 line~;
#X obj 63 211 r glide;
#X obj 28 274 pack 220 10;
#X obj 272 301 line~;
#X obj 303 211 r glide;
#X obj 268 274 pack 220 10;
#X obj 502 301 line~;
#X obj 533 211 r glide;
#X obj 498 274 pack 220 10;
#X obj 114 130 route 0 1 2 3 4;
#X obj 734 347 osc~;
#X obj 734 233 unpack 0 0;
#X obj 734 429 *~;
#X obj 790 386 line~;
#X obj 790 259 trigger b f;
#X obj 790 297 f;
#X obj 839 319 r fi;
#X obj 906 319 r fo;
#X obj 715 298 line~;
#X obj 746 208 r glide;
#X obj 711 271 pack 220 10;
#X obj 943 318 osc~;
#X obj 943 204 unpack 0 0;
#X obj 941 419 *~;
#X obj 999 357 line~;
#X obj 999 230 trigger b f;
#X obj 999 318 pack 1 10;
#X obj 1072 315 pack 0 5;
#X obj 999 268 f;
#X obj 1048 290 r fi;
#X obj 1115 290 r fo;
#X obj 924 269 line~;
#X obj 955 179 r glide;
#X obj 920 242 pack 220 10;
#X obj 347 350 pack 1 15;
#X obj 420 347 pack 0 10;
#X obj 577 350 pack 1 20;
#X obj 650 347 pack 0 15;
#X obj 790 347 pack 1 25;
#X obj 863 344 pack 0 20;
#X connect 0 0 2 0;
#X connect 1 0 36 0;
#X connect 1 1 5 0;
#X connect 2 0 9 0;
#X connect 3 0 2 1;
#X connect 4 0 14 0;
#X connect 5 0 4 0;
#X connect 5 0 69 0;
#X connect 5 1 4 1;
#X connect 6 0 14 1;
#X connect 7 0 20 1;
#X connect 8 0 10 0;
#X connect 10 0 22 0;
#X connect 10 1 13 0;
#X connect 11 0 43 0;
#X connect 13 0 11 1;
#X connect 13 1 11 2;
#X connect 14 0 3 0;
#X connect 15 0 17 0;
#X connect 16 0 39 0;
#X connect 16 1 19 0;
#X connect 17 0 9 0;
#X connect 18 0 17 1;
#X connect 19 0 21 0;
#X connect 19 0 71 0;
#X connect 19 1 21 1;
#X connect 20 0 3 0;
#X connect 21 0 68 0;
#X connect 22 0 11 0;
#X connect 23 0 68 1;
#X connect 24 0 69 1;
#X connect 25 0 27 0;
#X connect 26 0 42 0;
#X connect 26 1 29 0;
#X connect 27 0 9 0;
#X connect 28 0 27 1;
#X connect 29 0 30 0;
#X connect 29 0 73 0;
#X connect 29 1 30 1;
#X connect 30 0 70 0;
#X connect 31 0 70 1;
#X connect 32 0 71 1;
#X connect 34 0 0 0;
#X connect 35 0 36 1;
#X connect 36 0 34 0;
#X connect 37 0 15 0;
#X connect 38 0 39 1;
#X connect 39 0 37 0;
#X connect 40 0 25 0;
#X connect 41 0 42 1;
#X connect 42 0 40 0;
#X connect 43 0 1 0;
#X connect 43 1 16 0;
#X connect 43 2 26 0;
#X connect 43 3 45 0;
#X connect 43 4 56 0;
#X connect 44 0 46 0;
#X connect 45 0 54 0;
#X connect 45 1 48 0;
#X connect 46 0 9 0;
#X connect 47 0 46 1;
#X connect 48 0 49 0;
#X connect 48 0 61 0;
#X connect 48 1 49 1;
#X connect 49 0 72 0;
#X connect 50 0 72 1;
#X connect 51 0 73 1;
#X connect 52 0 44 0;
#X connect 53 0 54 1;
#X connect 54 0 52 0;
#X connect 55 0 57 0;
#X connect 56 0 67 0;
#X connect 56 1 59 0;
#X connect 57 0 9 0;
#X connect 58 0 57 1;
#X connect 59 0 62 0;
#X connect 59 0 20 0;
#X connect 59 1 62 1;
#X connect 60 0 58 0;
#X connect 61 0 58 0;
#X connect 62 0 60 0;
#X connect 63 0 60 1;
#X connect 64 0 61 1;
#X connect 65 0 55 0;
#X connect 66 0 67 1;
#X connect 67 0 65 0;
#X connect 68 0 18 0;
#X connect 69 0 18 0;
#X connect 70 0 28 0;
#X connect 71 0 28 0;
#X connect 72 0 47 0;
#X connect 73 0 47 0;
#X restore 435 352 pd;
#N canvas 64 153 1154 584 (subpatch) 0;
#X obj 50 354 osc~;
#X obj 51 239 unpack 0 0;
#X obj 50 434 *~;
#X obj 106 393 line~;
#X obj 107 307 f;
#X obj 107 276 trigger b f;
#X obj 158 326 r fi;
#X obj 230 325 r fo;
#X obj 52 8 inlet;
#X obj 289 526 outlet~;
#X obj 52 36 t b l;
#X obj 52 103 pack 0 0 0;
#X obj 544 535 print;
#X obj 133 68 unpack 0 0;
#X obj 107 353 pack 1 10;
#X obj 290 350 osc~;
#X obj 291 236 unpack 0 0;
#X obj 290 432 *~;
#X obj 347 389 line~;
#X obj 347 265 trigger b f;
#X obj 180 353 pack 0 20;
#X obj 347 300 f;
#N canvas 0 23 450 300 counter3 0;
#X msg 191 82 1;
#X obj 189 158 wrap;
#X obj 189 181 * 3;
#X obj 191 109 / 3;
#X obj 189 132 +;
#X obj 195 40 inlet;
#X obj 191 217 outlet;
#X connect 0 0 3 0;
#X connect 1 0 2 0;
#X connect 1 0 4 1;
#X connect 2 0 6 0;
#X connect 3 0 4 0;
#X connect 4 0 1 0;
#X connect 5 0 0 0;
#X restore 52 68 pd counter3;
#X obj 398 321 r fi;
#X obj 463 322 r fo;
#X obj 521 350 osc~;
#X obj 521 236 unpack 0 0;
#X obj 521 432 *~;
#X obj 577 389 line~;
#X obj 577 262 trigger b f;
#X obj 577 300 f;
#X obj 626 322 r fi;
#X obj 693 322 r fo;
#X text 273 26 wenn voice 0 eingefadet wird \, wird voice 1 ausgefadet
und voice 2 kann weiterklingen (weil es die vorherige stimme ist. damit
erzeugt man ein maximales overlapp von 3 und ein minimales overlap
von 2;
#X obj 32 301 line~;
#X obj 63 211 r glide;
#X obj 28 274 pack 220 10;
#X obj 272 301 line~;
#X obj 303 211 r glide;
#X obj 268 274 pack 220 10;
#X obj 502 301 line~;
#X obj 533 211 r glide;
#X obj 498 274 pack 220 10;
#X obj 114 130 route 0 1 2 3 4;
#X obj 734 347 osc~;
#X obj 734 233 unpack 0 0;
#X obj 734 429 *~;
#X obj 790 386 line~;
#X obj 790 259 trigger b f;
#X obj 790 297 f;
#X obj 839 319 r fi;
#X obj 906 319 r fo;
#X obj 715 298 line~;
#X obj 746 208 r glide;
#X obj 711 271 pack 220 10;
#X obj 943 318 osc~;
#X obj 943 204 unpack 0 0;
#X obj 941 419 *~;
#X obj 999 357 line~;
#X obj 999 230 trigger b f;
#X obj 999 318 pack 1 10;
#X obj 1072 315 pack 0 5;
#X obj 999 268 f;
#X obj 1048 290 r fi;
#X obj 1115 290 r fo;
#X obj 924 269 line~;
#X obj 955 179 r glide;
#X obj 920 242 pack 220 10;
#X obj 347 350 pack 1 15;
#X obj 420 347 pack 0 10;
#X obj 577 350 pack 1 20;
#X obj 650 347 pack 0 15;
#X obj 790 347 pack 1 25;
#X obj 863 344 pack 0 20;
#X connect 0 0 2 0;
#X connect 1 0 36 0;
#X connect 1 1 5 0;
#X connect 2 0 9 0;
#X connect 3 0 2 1;
#X connect 4 0 14 0;
#X connect 5 0 4 0;
#X connect 5 0 69 0;
#X connect 5 1 4 1;
#X connect 6 0 14 1;
#X connect 7 0 20 1;
#X connect 8 0 10 0;
#X connect 10 0 22 0;
#X connect 10 1 13 0;
#X connect 11 0 43 0;
#X connect 13 0 11 1;
#X connect 13 1 11 2;
#X connect 14 0 3 0;
#X connect 15 0 17 0;
#X connect 16 0 39 0;
#X connect 16 1 19 0;
#X connect 17 0 9 0;
#X connect 18 0 17 1;
#X connect 19 0 21 0;
#X connect 19 0 71 0;
#X connect 19 1 21 1;
#X connect 20 0 3 0;
#X connect 21 0 68 0;
#X connect 22 0 11 0;
#X connect 23 0 68 1;
#X connect 24 0 69 1;
#X connect 25 0 27 0;
#X connect 26 0 42 0;
#X connect 26 1 29 0;
#X connect 27 0 9 0;
#X connect 28 0 27 1;
#X connect 29 0 30 0;
#X connect 29 0 73 0;
#X connect 29 1 30 1;
#X connect 30 0 70 0;
#X connect 31 0 70 1;
#X connect 32 0 71 1;
#X connect 34 0 0 0;
#X connect 35 0 36 1;
#X connect 36 0 34 0;
#X connect 37 0 15 0;
#X connect 38 0 39 1;
#X connect 39 0 37 0;
#X connect 40 0 25 0;
#X connect 41 0 42 1;
#X connect 42 0 40 0;
#X connect 43 0 1 0;
#X connect 43 1 16 0;
#X connect 43 2 26 0;
#X connect 43 3 45 0;
#X connect 43 4 56 0;
#X connect 44 0 46 0;
#X connect 45 0 54 0;
#X connect 45 1 48 0;
#X connect 46 0 9 0;
#X connect 47 0 46 1;
#X connect 48 0 49 0;
#X connect 48 0 61 0;
#X connect 48 1 49 1;
#X connect 49 0 72 0;
#X connect 50 0 72 1;
#X connect 51 0 73 1;
#X connect 52 0 44 0;
#X connect 53 0 54 1;
#X connect 54 0 52 0;
#X connect 55 0 57 0;
#X connect 56 0 67 0;
#X connect 56 1 59 0;
#X connect 57 0 9 0;
#X connect 58 0 57 1;
#X connect 59 0 62 0;
#X connect 59 0 20 0;
#X connect 59 1 62 1;
#X connect 60 0 58 0;
#X connect 61 0 58 0;
#X connect 62 0 60 0;
#X connect 63 0 60 1;
#X connect 64 0 61 1;
#X connect 65 0 55 0;
#X connect 66 0 67 1;
#X connect 67 0 65 0;
#X connect 68 0 18 0;
#X connect 69 0 18 0;
#X connect 70 0 28 0;
#X connect 71 0 28 0;
#X connect 72 0 47 0;
#X connect 73 0 47 0;
#X restore 460 351 pd;
#N canvas 64 153 1154 584 (subpatch) 0;
#X obj 50 354 osc~;
#X obj 51 239 unpack 0 0;
#X obj 50 434 *~;
#X obj 106 393 line~;
#X obj 107 307 f;
#X obj 107 276 trigger b f;
#X obj 158 326 r fi;
#X obj 230 325 r fo;
#X obj 52 8 inlet;
#X obj 289 526 outlet~;
#X obj 52 36 t b l;
#X obj 52 103 pack 0 0 0;
#X obj 544 535 print;
#X obj 133 68 unpack 0 0;
#X obj 107 353 pack 1 10;
#X obj 290 350 osc~;
#X obj 291 236 unpack 0 0;
#X obj 290 432 *~;
#X obj 347 389 line~;
#X obj 347 265 trigger b f;
#X obj 180 353 pack 0 20;
#X obj 347 300 f;
#N canvas 0 23 450 300 counter3 0;
#X msg 191 82 1;
#X obj 189 158 wrap;
#X obj 189 181 * 3;
#X obj 191 109 / 3;
#X obj 189 132 +;
#X obj 195 40 inlet;
#X obj 191 217 outlet;
#X connect 0 0 3 0;
#X connect 1 0 2 0;
#X connect 1 0 4 1;
#X connect 2 0 6 0;
#X connect 3 0 4 0;
#X connect 4 0 1 0;
#X connect 5 0 0 0;
#X restore 52 68 pd counter3;
#X obj 398 321 r fi;
#X obj 463 322 r fo;
#X obj 521 350 osc~;
#X obj 521 236 unpack 0 0;
#X obj 521 432 *~;
#X obj 577 389 line~;
#X obj 577 262 trigger b f;
#X obj 577 300 f;
#X obj 626 322 r fi;
#X obj 693 322 r fo;
#X text 273 26 wenn voice 0 eingefadet wird \, wird voice 1 ausgefadet
und voice 2 kann weiterklingen (weil es die vorherige stimme ist. damit
erzeugt man ein maximales overlapp von 3 und ein minimales overlap
von 2;
#X obj 32 301 line~;
#X obj 63 211 r glide;
#X obj 28 274 pack 220 10;
#X obj 272 301 line~;
#X obj 303 211 r glide;
#X obj 268 274 pack 220 10;
#X obj 502 301 line~;
#X obj 533 211 r glide;
#X obj 498 274 pack 220 10;
#X obj 114 130 route 0 1 2 3 4;
#X obj 734 347 osc~;
#X obj 734 233 unpack 0 0;
#X obj 734 429 *~;
#X obj 790 386 line~;
#X obj 790 259 trigger b f;
#X obj 790 297 f;
#X obj 839 319 r fi;
#X obj 906 319 r fo;
#X obj 715 298 line~;
#X obj 746 208 r glide;
#X obj 711 271 pack 220 10;
#X obj 943 318 osc~;
#X obj 943 204 unpack 0 0;
#X obj 941 419 *~;
#X obj 999 357 line~;
#X obj 999 230 trigger b f;
#X obj 999 318 pack 1 10;
#X obj 1072 315 pack 0 5;
#X obj 999 268 f;
#X obj 1048 290 r fi;
#X obj 1115 290 r fo;
#X obj 924 269 line~;
#X obj 955 179 r glide;
#X obj 920 242 pack 220 10;
#X obj 347 350 pack 1 15;
#X obj 420 347 pack 0 10;
#X obj 577 350 pack 1 20;
#X obj 650 347 pack 0 15;
#X obj 790 347 pack 1 25;
#X obj 863 344 pack 0 20;
#X connect 0 0 2 0;
#X connect 1 0 36 0;
#X connect 1 1 5 0;
#X connect 2 0 9 0;
#X connect 3 0 2 1;
#X connect 4 0 14 0;
#X connect 5 0 4 0;
#X connect 5 0 69 0;
#X connect 5 1 4 1;
#X connect 6 0 14 1;
#X connect 7 0 20 1;
#X connect 8 0 10 0;
#X connect 10 0 22 0;
#X connect 10 1 13 0;
#X connect 11 0 43 0;
#X connect 13 0 11 1;
#X connect 13 1 11 2;
#X connect 14 0 3 0;
#X connect 15 0 17 0;
#X connect 16 0 39 0;
#X connect 16 1 19 0;
#X connect 17 0 9 0;
#X connect 18 0 17 1;
#X connect 19 0 21 0;
#X connect 19 0 71 0;
#X connect 19 1 21 1;
#X connect 20 0 3 0;
#X connect 21 0 68 0;
#X connect 22 0 11 0;
#X connect 23 0 68 1;
#X connect 24 0 69 1;
#X connect 25 0 27 0;
#X connect 26 0 42 0;
#X connect 26 1 29 0;
#X connect 27 0 9 0;
#X connect 28 0 27 1;
#X connect 29 0 30 0;
#X connect 29 0 73 0;
#X connect 29 1 30 1;
#X connect 30 0 70 0;
#X connect 31 0 70 1;
#X connect 32 0 71 1;
#X connect 34 0 0 0;
#X connect 35 0 36 1;
#X connect 36 0 34 0;
#X connect 37 0 15 0;
#X connect 38 0 39 1;
#X connect 39 0 37 0;
#X connect 40 0 25 0;
#X connect 41 0 42 1;
#X connect 42 0 40 0;
#X connect 43 0 1 0;
#X connect 43 1 16 0;
#X connect 43 2 26 0;
#X connect 43 3 45 0;
#X connect 43 4 56 0;
#X connect 44 0 46 0;
#X connect 45 0 54 0;
#X connect 45 1 48 0;
#X connect 46 0 9 0;
#X connect 47 0 46 1;
#X connect 48 0 49 0;
#X connect 48 0 61 0;
#X connect 48 1 49 1;
#X connect 49 0 72 0;
#X connect 50 0 72 1;
#X connect 51 0 73 1;
#X connect 52 0 44 0;
#X connect 53 0 54 1;
#X connect 54 0 52 0;
#X connect 55 0 57 0;
#X connect 56 0 67 0;
#X connect 56 1 59 0;
#X connect 57 0 9 0;
#X connect 58 0 57 1;
#X connect 59 0 62 0;
#X connect 59 0 20 0;
#X connect 59 1 62 1;
#X connect 60 0 58 0;
#X connect 61 0 58 0;
#X connect 62 0 60 0;
#X connect 63 0 60 1;
#X connect 64 0 61 1;
#X connect 65 0 55 0;
#X connect 66 0 67 1;
#X connect 67 0 65 0;
#X connect 68 0 18 0;
#X connect 69 0 18 0;
#X connect 70 0 28 0;
#X connect 71 0 28 0;
#X connect 72 0 47 0;
#X connect 73 0 47 0;
#X restore 482 352 pd;
#N canvas 64 153 1154 584 (subpatch) 0;
#X obj 50 354 osc~;
#X obj 51 239 unpack 0 0;
#X obj 50 434 *~;
#X obj 106 393 line~;
#X obj 107 307 f;
#X obj 107 276 trigger b f;
#X obj 158 326 r fi;
#X obj 230 325 r fo;
#X obj 52 8 inlet;
#X obj 289 526 outlet~;
#X obj 52 36 t b l;
#X obj 52 103 pack 0 0 0;
#X obj 544 535 print;
#X obj 133 68 unpack 0 0;
#X obj 107 353 pack 1 10;
#X obj 290 350 osc~;
#X obj 291 236 unpack 0 0;
#X obj 290 432 *~;
#X obj 347 389 line~;
#X obj 347 265 trigger b f;
#X obj 180 353 pack 0 20;
#X obj 347 300 f;
#N canvas 0 23 450 300 counter3 0;
#X msg 191 82 1;
#X obj 189 158 wrap;
#X obj 189 181 * 3;
#X obj 191 109 / 3;
#X obj 189 132 +;
#X obj 195 40 inlet;
#X obj 191 217 outlet;
#X connect 0 0 3 0;
#X connect 1 0 2 0;
#X connect 1 0 4 1;
#X connect 2 0 6 0;
#X connect 3 0 4 0;
#X connect 4 0 1 0;
#X connect 5 0 0 0;
#X restore 52 68 pd counter3;
#X obj 398 321 r fi;
#X obj 463 322 r fo;
#X obj 521 350 osc~;
#X obj 521 236 unpack 0 0;
#X obj 521 432 *~;
#X obj 577 389 line~;
#X obj 577 262 trigger b f;
#X obj 577 300 f;
#X obj 626 322 r fi;
#X obj 693 322 r fo;
#X text 273 26 wenn voice 0 eingefadet wird \, wird voice 1 ausgefadet
und voice 2 kann weiterklingen (weil es die vorherige stimme ist. damit
erzeugt man ein maximales overlapp von 3 und ein minimales overlap
von 2;
#X obj 32 301 line~;
#X obj 63 211 r glide;
#X obj 28 274 pack 220 10;
#X obj 272 301 line~;
#X obj 303 211 r glide;
#X obj 268 274 pack 220 10;
#X obj 502 301 line~;
#X obj 533 211 r glide;
#X obj 498 274 pack 220 10;
#X obj 114 130 route 0 1 2 3 4;
#X obj 734 347 osc~;
#X obj 734 233 unpack 0 0;
#X obj 734 429 *~;
#X obj 790 386 line~;
#X obj 790 259 trigger b f;
#X obj 790 297 f;
#X obj 839 319 r fi;
#X obj 906 319 r fo;
#X obj 715 298 line~;
#X obj 746 208 r glide;
#X obj 711 271 pack 220 10;
#X obj 943 318 osc~;
#X obj 943 204 unpack 0 0;
#X obj 941 419 *~;
#X obj 999 357 line~;
#X obj 999 230 trigger b f;
#X obj 999 318 pack 1 10;
#X obj 1072 315 pack 0 5;
#X obj 999 268 f;
#X obj 1048 290 r fi;
#X obj 1115 290 r fo;
#X obj 924 269 line~;
#X obj 955 179 r glide;
#X obj 920 242 pack 220 10;
#X obj 347 350 pack 1 15;
#X obj 420 347 pack 0 10;
#X obj 577 350 pack 1 20;
#X obj 650 347 pack 0 15;
#X obj 790 347 pack 1 25;
#X obj 863 344 pack 0 20;
#X connect 0 0 2 0;
#X connect 1 0 36 0;
#X connect 1 1 5 0;
#X connect 2 0 9 0;
#X connect 3 0 2 1;
#X connect 4 0 14 0;
#X connect 5 0 4 0;
#X connect 5 0 69 0;
#X connect 5 1 4 1;
#X connect 6 0 14 1;
#X connect 7 0 20 1;
#X connect 8 0 10 0;
#X connect 10 0 22 0;
#X connect 10 1 13 0;
#X connect 11 0 43 0;
#X connect 13 0 11 1;
#X connect 13 1 11 2;
#X connect 14 0 3 0;
#X connect 15 0 17 0;
#X connect 16 0 39 0;
#X connect 16 1 19 0;
#X connect 17 0 9 0;
#X connect 18 0 17 1;
#X connect 19 0 21 0;
#X connect 19 0 71 0;
#X connect 19 1 21 1;
#X connect 20 0 3 0;
#X connect 21 0 68 0;
#X connect 22 0 11 0;
#X connect 23 0 68 1;
#X connect 24 0 69 1;
#X connect 25 0 27 0;
#X connect 26 0 42 0;
#X connect 26 1 29 0;
#X connect 27 0 9 0;
#X connect 28 0 27 1;
#X connect 29 0 30 0;
#X connect 29 0 73 0;
#X connect 29 1 30 1;
#X connect 30 0 70 0;
#X connect 31 0 70 1;
#X connect 32 0 71 1;
#X connect 34 0 0 0;
#X connect 35 0 36 1;
#X connect 36 0 34 0;
#X connect 37 0 15 0;
#X connect 38 0 39 1;
#X connect 39 0 37 0;
#X connect 40 0 25 0;
#X connect 41 0 42 1;
#X connect 42 0 40 0;
#X connect 43 0 1 0;
#X connect 43 1 16 0;
#X connect 43 2 26 0;
#X connect 43 3 45 0;
#X connect 43 4 56 0;
#X connect 44 0 46 0;
#X connect 45 0 54 0;
#X connect 45 1 48 0;
#X connect 46 0 9 0;
#X connect 47 0 46 1;
#X connect 48 0 49 0;
#X connect 48 0 61 0;
#X connect 48 1 49 1;
#X connect 49 0 72 0;
#X connect 50 0 72 1;
#X connect 51 0 73 1;
#X connect 52 0 44 0;
#X connect 53 0 54 1;
#X connect 54 0 52 0;
#X connect 55 0 57 0;
#X connect 56 0 67 0;
#X connect 56 1 59 0;
#X connect 57 0 9 0;
#X connect 58 0 57 1;
#X connect 59 0 62 0;
#X connect 59 0 20 0;
#X connect 59 1 62 1;
#X connect 60 0 58 0;
#X connect 61 0 58 0;
#X connect 62 0 60 0;
#X connect 63 0 60 1;
#X connect 64 0 61 1;
#X connect 65 0 55 0;
#X connect 66 0 67 1;
#X connect 67 0 65 0;
#X connect 68 0 18 0;
#X connect 69 0 18 0;
#X connect 70 0 28 0;
#X connect 71 0 28 0;
#X connect 72 0 47 0;
#X connect 73 0 47 0;
#X restore 505 351 pd;
#N canvas 64 153 1154 584 (subpatch) 0;
#X obj 50 354 osc~;
#X obj 51 239 unpack 0 0;
#X obj 50 434 *~;
#X obj 106 393 line~;
#X obj 107 307 f;
#X obj 107 276 trigger b f;
#X obj 158 326 r fi;
#X obj 230 325 r fo;
#X obj 52 8 inlet;
#X obj 289 526 outlet~;
#X obj 52 36 t b l;
#X obj 52 103 pack 0 0 0;
#X obj 544 535 print;
#X obj 133 68 unpack 0 0;
#X obj 107 353 pack 1 10;
#X obj 290 350 osc~;
#X obj 291 236 unpack 0 0;
#X obj 290 432 *~;
#X obj 347 389 line~;
#X obj 347 265 trigger b f;
#X obj 180 353 pack 0 20;
#X obj 347 300 f;
#N canvas 0 23 450 300 counter3 0;
#X msg 191 82 1;
#X obj 189 158 wrap;
#X obj 189 181 * 3;
#X obj 191 109 / 3;
#X obj 189 132 +;
#X obj 195 40 inlet;
#X obj 191 217 outlet;
#X connect 0 0 3 0;
#X connect 1 0 2 0;
#X connect 1 0 4 1;
#X connect 2 0 6 0;
#X connect 3 0 4 0;
#X connect 4 0 1 0;
#X connect 5 0 0 0;
#X restore 52 68 pd counter3;
#X obj 398 321 r fi;
#X obj 463 322 r fo;
#X obj 521 350 osc~;
#X obj 521 236 unpack 0 0;
#X obj 521 432 *~;
#X obj 577 389 line~;
#X obj 577 262 trigger b f;
#X obj 577 300 f;
#X obj 626 322 r fi;
#X obj 693 322 r fo;
#X text 273 26 wenn voice 0 eingefadet wird \, wird voice 1 ausgefadet
und voice 2 kann weiterklingen (weil es die vorherige stimme ist. damit
erzeugt man ein maximales overlapp von 3 und ein minimales overlap
von 2;
#X obj 32 301 line~;
#X obj 63 211 r glide;
#X obj 28 274 pack 220 10;
#X obj 272 301 line~;
#X obj 303 211 r glide;
#X obj 268 274 pack 220 10;
#X obj 502 301 line~;
#X obj 533 211 r glide;
#X obj 498 274 pack 220 10;
#X obj 114 130 route 0 1 2 3 4;
#X obj 734 347 osc~;
#X obj 734 233 unpack 0 0;
#X obj 734 429 *~;
#X obj 790 386 line~;
#X obj 790 259 trigger b f;
#X obj 790 297 f;
#X obj 839 319 r fi;
#X obj 906 319 r fo;
#X obj 715 298 line~;
#X obj 746 208 r glide;
#X obj 711 271 pack 220 10;
#X obj 943 318 osc~;
#X obj 943 204 unpack 0 0;
#X obj 941 419 *~;
#X obj 999 357 line~;
#X obj 999 230 trigger b f;
#X obj 999 318 pack 1 10;
#X obj 1072 315 pack 0 5;
#X obj 999 268 f;
#X obj 1048 290 r fi;
#X obj 1115 290 r fo;
#X obj 924 269 line~;
#X obj 955 179 r glide;
#X obj 920 242 pack 220 10;
#X obj 347 350 pack 1 15;
#X obj 420 347 pack 0 10;
#X obj 577 350 pack 1 20;
#X obj 650 347 pack 0 15;
#X obj 790 347 pack 1 25;
#X obj 863 344 pack 0 20;
#X connect 0 0 2 0;
#X connect 1 0 36 0;
#X connect 1 1 5 0;
#X connect 2 0 9 0;
#X connect 3 0 2 1;
#X connect 4 0 14 0;
#X connect 5 0 4 0;
#X connect 5 0 69 0;
#X connect 5 1 4 1;
#X connect 6 0 14 1;
#X connect 7 0 20 1;
#X connect 8 0 10 0;
#X connect 10 0 22 0;
#X connect 10 1 13 0;
#X connect 11 0 43 0;
#X connect 13 0 11 1;
#X connect 13 1 11 2;
#X connect 14 0 3 0;
#X connect 15 0 17 0;
#X connect 16 0 39 0;
#X connect 16 1 19 0;
#X connect 17 0 9 0;
#X connect 18 0 17 1;
#X connect 19 0 21 0;
#X connect 19 0 71 0;
#X connect 19 1 21 1;
#X connect 20 0 3 0;
#X connect 21 0 68 0;
#X connect 22 0 11 0;
#X connect 23 0 68 1;
#X connect 24 0 69 1;
#X connect 25 0 27 0;
#X connect 26 0 42 0;
#X connect 26 1 29 0;
#X connect 27 0 9 0;
#X connect 28 0 27 1;
#X connect 29 0 30 0;
#X connect 29 0 73 0;
#X connect 29 1 30 1;
#X connect 30 0 70 0;
#X connect 31 0 70 1;
#X connect 32 0 71 1;
#X connect 34 0 0 0;
#X connect 35 0 36 1;
#X connect 36 0 34 0;
#X connect 37 0 15 0;
#X connect 38 0 39 1;
#X connect 39 0 37 0;
#X connect 40 0 25 0;
#X connect 41 0 42 1;
#X connect 42 0 40 0;
#X connect 43 0 1 0;
#X connect 43 1 16 0;
#X connect 43 2 26 0;
#X connect 43 3 45 0;
#X connect 43 4 56 0;
#X connect 44 0 46 0;
#X connect 45 0 54 0;
#X connect 45 1 48 0;
#X connect 46 0 9 0;
#X connect 47 0 46 1;
#X connect 48 0 49 0;
#X connect 48 0 61 0;
#X connect 48 1 49 1;
#X connect 49 0 72 0;
#X connect 50 0 72 1;
#X connect 51 0 73 1;
#X connect 52 0 44 0;
#X connect 53 0 54 1;
#X connect 54 0 52 0;
#X connect 55 0 57 0;
#X connect 56 0 67 0;
#X connect 56 1 59 0;
#X connect 57 0 9 0;
#X connect 58 0 57 1;
#X connect 59 0 62 0;
#X connect 59 0 20 0;
#X connect 59 1 62 1;
#X connect 60 0 58 0;
#X connect 61 0 58 0;
#X connect 62 0 60 0;
#X connect 63 0 60 1;
#X connect 64 0 61 1;
#X connect 65 0 55 0;
#X connect 66 0 67 1;
#X connect 67 0 65 0;
#X connect 68 0 18 0;
#X connect 69 0 18 0;
#X connect 70 0 28 0;
#X connect 71 0 28 0;
#X connect 72 0 47 0;
#X connect 73 0 47 0;
#X restore 530 352 pd;
#N canvas 64 153 1154 584 (subpatch) 0;
#X obj 50 354 osc~;
#X obj 51 239 unpack 0 0;
#X obj 50 434 *~;
#X obj 106 393 line~;
#X obj 107 307 f;
#X obj 107 276 trigger b f;
#X obj 158 326 r fi;
#X obj 230 325 r fo;
#X obj 52 8 inlet;
#X obj 289 526 outlet~;
#X obj 52 36 t b l;
#X obj 52 103 pack 0 0 0;
#X obj 544 535 print;
#X obj 133 68 unpack 0 0;
#X obj 107 353 pack 1 10;
#X obj 290 350 osc~;
#X obj 291 236 unpack 0 0;
#X obj 290 432 *~;
#X obj 347 389 line~;
#X obj 347 265 trigger b f;
#X obj 180 353 pack 0 20;
#X obj 347 300 f;
#N canvas 0 23 450 300 counter3 0;
#X msg 191 82 1;
#X obj 189 158 wrap;
#X obj 189 181 * 3;
#X obj 191 109 / 3;
#X obj 189 132 +;
#X obj 195 40 inlet;
#X obj 191 217 outlet;
#X connect 0 0 3 0;
#X connect 1 0 2 0;
#X connect 1 0 4 1;
#X connect 2 0 6 0;
#X connect 3 0 4 0;
#X connect 4 0 1 0;
#X connect 5 0 0 0;
#X restore 52 68 pd counter3;
#X obj 398 321 r fi;
#X obj 463 322 r fo;
#X obj 521 350 osc~;
#X obj 521 236 unpack 0 0;
#X obj 521 432 *~;
#X obj 577 389 line~;
#X obj 577 262 trigger b f;
#X obj 577 300 f;
#X obj 626 322 r fi;
#X obj 693 322 r fo;
#X text 273 26 wenn voice 0 eingefadet wird \, wird voice 1 ausgefadet
und voice 2 kann weiterklingen (weil es die vorherige stimme ist. damit
erzeugt man ein maximales overlapp von 3 und ein minimales overlap
von 2;
#X obj 32 301 line~;
#X obj 63 211 r glide;
#X obj 28 274 pack 220 10;
#X obj 272 301 line~;
#X obj 303 211 r glide;
#X obj 268 274 pack 220 10;
#X obj 502 301 line~;
#X obj 533 211 r glide;
#X obj 498 274 pack 220 10;
#X obj 114 130 route 0 1 2 3 4;
#X obj 734 347 osc~;
#X obj 734 233 unpack 0 0;
#X obj 734 429 *~;
#X obj 790 386 line~;
#X obj 790 259 trigger b f;
#X obj 790 297 f;
#X obj 839 319 r fi;
#X obj 906 319 r fo;
#X obj 715 298 line~;
#X obj 746 208 r glide;
#X obj 711 271 pack 220 10;
#X obj 943 318 osc~;
#X obj 943 204 unpack 0 0;
#X obj 941 419 *~;
#X obj 999 357 line~;
#X obj 999 230 trigger b f;
#X obj 999 318 pack 1 10;
#X obj 1072 315 pack 0 5;
#X obj 999 268 f;
#X obj 1048 290 r fi;
#X obj 1115 290 r fo;
#X obj 924 269 line~;
#X obj 955 179 r glide;
#X obj 920 242 pack 220 10;
#X obj 347 350 pack 1 15;
#X obj 420 347 pack 0 10;
#X obj 577 350 pack 1 20;
#X obj 650 347 pack 0 15;
#X obj 790 347 pack 1 25;
#X obj 863 344 pack 0 20;
#X connect 0 0 2 0;
#X connect 1 0 36 0;
#X connect 1 1 5 0;
#X connect 2 0 9 0;
#X connect 3 0 2 1;
#X connect 4 0 14 0;
#X connect 5 0 4 0;
#X connect 5 0 69 0;
#X connect 5 1 4 1;
#X connect 6 0 14 1;
#X connect 7 0 20 1;
#X connect 8 0 10 0;
#X connect 10 0 22 0;
#X connect 10 1 13 0;
#X connect 11 0 43 0;
#X connect 13 0 11 1;
#X connect 13 1 11 2;
#X connect 14 0 3 0;
#X connect 15 0 17 0;
#X connect 16 0 39 0;
#X connect 16 1 19 0;
#X connect 17 0 9 0;
#X connect 18 0 17 1;
#X connect 19 0 21 0;
#X connect 19 0 71 0;
#X connect 19 1 21 1;
#X connect 20 0 3 0;
#X connect 21 0 68 0;
#X connect 22 0 11 0;
#X connect 23 0 68 1;
#X connect 24 0 69 1;
#X connect 25 0 27 0;
#X connect 26 0 42 0;
#X connect 26 1 29 0;
#X connect 27 0 9 0;
#X connect 28 0 27 1;
#X connect 29 0 30 0;
#X connect 29 0 73 0;
#X connect 29 1 30 1;
#X connect 30 0 70 0;
#X connect 31 0 70 1;
#X connect 32 0 71 1;
#X connect 34 0 0 0;
#X connect 35 0 36 1;
#X connect 36 0 34 0;
#X connect 37 0 15 0;
#X connect 38 0 39 1;
#X connect 39 0 37 0;
#X connect 40 0 25 0;
#X connect 41 0 42 1;
#X connect 42 0 40 0;
#X connect 43 0 1 0;
#X connect 43 1 16 0;
#X connect 43 2 26 0;
#X connect 43 3 45 0;
#X connect 43 4 56 0;
#X connect 44 0 46 0;
#X connect 45 0 54 0;
#X connect 45 1 48 0;
#X connect 46 0 9 0;
#X connect 47 0 46 1;
#X connect 48 0 49 0;
#X connect 48 0 61 0;
#X connect 48 1 49 1;
#X connect 49 0 72 0;
#X connect 50 0 72 1;
#X connect 51 0 73 1;
#X connect 52 0 44 0;
#X connect 53 0 54 1;
#X connect 54 0 52 0;
#X connect 55 0 57 0;
#X connect 56 0 67 0;
#X connect 56 1 59 0;
#X connect 57 0 9 0;
#X connect 58 0 57 1;
#X connect 59 0 62 0;
#X connect 59 0 20 0;
#X connect 59 1 62 1;
#X connect 60 0 58 0;
#X connect 61 0 58 0;
#X connect 62 0 60 0;
#X connect 63 0 60 1;
#X connect 64 0 61 1;
#X connect 65 0 55 0;
#X connect 66 0 67 1;
#X connect 67 0 65 0;
#X connect 68 0 18 0;
#X connect 69 0 18 0;
#X connect 70 0 28 0;
#X connect 71 0 28 0;
#X connect 72 0 47 0;
#X connect 73 0 47 0;
#X restore 555 351 pd;
#N canvas 64 153 1154 584 (subpatch) 0;
#X obj 50 354 osc~;
#X obj 51 239 unpack 0 0;
#X obj 50 434 *~;
#X obj 106 393 line~;
#X obj 107 307 f;
#X obj 107 276 trigger b f;
#X obj 158 326 r fi;
#X obj 230 325 r fo;
#X obj 52 8 inlet;
#X obj 289 526 outlet~;
#X obj 52 36 t b l;
#X obj 52 103 pack 0 0 0;
#X obj 544 535 print;
#X obj 133 68 unpack 0 0;
#X obj 107 353 pack 1 10;
#X obj 290 350 osc~;
#X obj 291 236 unpack 0 0;
#X obj 290 432 *~;
#X obj 347 389 line~;
#X obj 347 265 trigger b f;
#X obj 180 353 pack 0 20;
#X obj 347 300 f;
#N canvas 0 23 450 300 counter3 0;
#X msg 191 82 1;
#X obj 189 158 wrap;
#X obj 189 181 * 3;
#X obj 191 109 / 3;
#X obj 189 132 +;
#X obj 195 40 inlet;
#X obj 191 217 outlet;
#X connect 0 0 3 0;
#X connect 1 0 2 0;
#X connect 1 0 4 1;
#X connect 2 0 6 0;
#X connect 3 0 4 0;
#X connect 4 0 1 0;
#X connect 5 0 0 0;
#X restore 52 68 pd counter3;
#X obj 398 321 r fi;
#X obj 463 322 r fo;
#X obj 521 350 osc~;
#X obj 521 236 unpack 0 0;
#X obj 521 432 *~;
#X obj 577 389 line~;
#X obj 577 262 trigger b f;
#X obj 577 300 f;
#X obj 626 322 r fi;
#X obj 693 322 r fo;
#X text 273 26 wenn voice 0 eingefadet wird \, wird voice 1 ausgefadet
und voice 2 kann weiterklingen (weil es die vorherige stimme ist. damit
erzeugt man ein maximales overlapp von 3 und ein minimales overlap
von 2;
#X obj 32 301 line~;
#X obj 63 211 r glide;
#X obj 28 274 pack 220 10;
#X obj 272 301 line~;
#X obj 303 211 r glide;
#X obj 268 274 pack 220 10;
#X obj 502 301 line~;
#X obj 533 211 r glide;
#X obj 498 274 pack 220 10;
#X obj 114 130 route 0 1 2 3 4;
#X obj 734 347 osc~;
#X obj 734 233 unpack 0 0;
#X obj 734 429 *~;
#X obj 790 386 line~;
#X obj 790 259 trigger b f;
#X obj 790 297 f;
#X obj 839 319 r fi;
#X obj 906 319 r fo;
#X obj 715 298 line~;
#X obj 746 208 r glide;
#X obj 711 271 pack 220 10;
#X obj 943 318 osc~;
#X obj 943 204 unpack 0 0;
#X obj 941 419 *~;
#X obj 999 357 line~;
#X obj 999 230 trigger b f;
#X obj 999 318 pack 1 10;
#X obj 1072 315 pack 0 5;
#X obj 999 268 f;
#X obj 1048 290 r fi;
#X obj 1115 290 r fo;
#X obj 924 269 line~;
#X obj 955 179 r glide;
#X obj 920 242 pack 220 10;
#X obj 347 350 pack 1 15;
#X obj 420 347 pack 0 10;
#X obj 577 350 pack 1 20;
#X obj 650 347 pack 0 15;
#X obj 790 347 pack 1 25;
#X obj 863 344 pack 0 20;
#X connect 0 0 2 0;
#X connect 1 0 36 0;
#X connect 1 1 5 0;
#X connect 2 0 9 0;
#X connect 3 0 2 1;
#X connect 4 0 14 0;
#X connect 5 0 4 0;
#X connect 5 0 69 0;
#X connect 5 1 4 1;
#X connect 6 0 14 1;
#X connect 7 0 20 1;
#X connect 8 0 10 0;
#X connect 10 0 22 0;
#X connect 10 1 13 0;
#X connect 11 0 43 0;
#X connect 13 0 11 1;
#X connect 13 1 11 2;
#X connect 14 0 3 0;
#X connect 15 0 17 0;
#X connect 16 0 39 0;
#X connect 16 1 19 0;
#X connect 17 0 9 0;
#X connect 18 0 17 1;
#X connect 19 0 21 0;
#X connect 19 0 71 0;
#X connect 19 1 21 1;
#X connect 20 0 3 0;
#X connect 21 0 68 0;
#X connect 22 0 11 0;
#X connect 23 0 68 1;
#X connect 24 0 69 1;
#X connect 25 0 27 0;
#X connect 26 0 42 0;
#X connect 26 1 29 0;
#X connect 27 0 9 0;
#X connect 28 0 27 1;
#X connect 29 0 30 0;
#X connect 29 0 73 0;
#X connect 29 1 30 1;
#X connect 30 0 70 0;
#X connect 31 0 70 1;
#X connect 32 0 71 1;
#X connect 34 0 0 0;
#X connect 35 0 36 1;
#X connect 36 0 34 0;
#X connect 37 0 15 0;
#X connect 38 0 39 1;
#X connect 39 0 37 0;
#X connect 40 0 25 0;
#X connect 41 0 42 1;
#X connect 42 0 40 0;
#X connect 43 0 1 0;
#X connect 43 1 16 0;
#X connect 43 2 26 0;
#X connect 43 3 45 0;
#X connect 43 4 56 0;
#X connect 44 0 46 0;
#X connect 45 0 54 0;
#X connect 45 1 48 0;
#X connect 46 0 9 0;
#X connect 47 0 46 1;
#X connect 48 0 49 0;
#X connect 48 0 61 0;
#X connect 48 1 49 1;
#X connect 49 0 72 0;
#X connect 50 0 72 1;
#X connect 51 0 73 1;
#X connect 52 0 44 0;
#X connect 53 0 54 1;
#X connect 54 0 52 0;
#X connect 55 0 57 0;
#X connect 56 0 67 0;
#X connect 56 1 59 0;
#X connect 57 0 9 0;
#X connect 58 0 57 1;
#X connect 59 0 62 0;
#X connect 59 0 20 0;
#X connect 59 1 62 1;
#X connect 60 0 58 0;
#X connect 61 0 58 0;
#X connect 62 0 60 0;
#X connect 63 0 60 1;
#X connect 64 0 61 1;
#X connect 65 0 55 0;
#X connect 66 0 67 1;
#X connect 67 0 65 0;
#X connect 68 0 18 0;
#X connect 69 0 18 0;
#X connect 70 0 28 0;
#X connect 71 0 28 0;
#X connect 72 0 47 0;
#X connect 73 0 47 0;
#X restore 579 349 pd;
#N canvas 64 153 1154 584 (subpatch) 0;
#X obj 50 354 osc~;
#X obj 51 239 unpack 0 0;
#X obj 50 434 *~;
#X obj 106 393 line~;
#X obj 107 307 f;
#X obj 107 276 trigger b f;
#X obj 158 326 r fi;
#X obj 230 325 r fo;
#X obj 52 8 inlet;
#X obj 289 526 outlet~;
#X obj 52 36 t b l;
#X obj 52 103 pack 0 0 0;
#X obj 544 535 print;
#X obj 133 68 unpack 0 0;
#X obj 107 353 pack 1 10;
#X obj 290 350 osc~;
#X obj 291 236 unpack 0 0;
#X obj 290 432 *~;
#X obj 347 389 line~;
#X obj 347 265 trigger b f;
#X obj 180 353 pack 0 20;
#X obj 347 300 f;
#N canvas 0 23 450 300 counter3 0;
#X msg 191 82 1;
#X obj 189 158 wrap;
#X obj 189 181 * 3;
#X obj 191 109 / 3;
#X obj 189 132 +;
#X obj 195 40 inlet;
#X obj 191 217 outlet;
#X connect 0 0 3 0;
#X connect 1 0 2 0;
#X connect 1 0 4 1;
#X connect 2 0 6 0;
#X connect 3 0 4 0;
#X connect 4 0 1 0;
#X connect 5 0 0 0;
#X restore 52 68 pd counter3;
#X obj 398 321 r fi;
#X obj 463 322 r fo;
#X obj 521 350 osc~;
#X obj 521 236 unpack 0 0;
#X obj 521 432 *~;
#X obj 577 389 line~;
#X obj 577 262 trigger b f;
#X obj 577 300 f;
#X obj 626 322 r fi;
#X obj 693 322 r fo;
#X text 273 26 wenn voice 0 eingefadet wird \, wird voice 1 ausgefadet
und voice 2 kann weiterklingen (weil es die vorherige stimme ist. damit
erzeugt man ein maximales overlapp von 3 und ein minimales overlap
von 2;
#X obj 32 301 line~;
#X obj 63 211 r glide;
#X obj 28 274 pack 220 10;
#X obj 272 301 line~;
#X obj 303 211 r glide;
#X obj 268 274 pack 220 10;
#X obj 502 301 line~;
#X obj 533 211 r glide;
#X obj 498 274 pack 220 10;
#X obj 114 130 route 0 1 2 3 4;
#X obj 734 347 osc~;
#X obj 734 233 unpack 0 0;
#X obj 734 429 *~;
#X obj 790 386 line~;
#X obj 790 259 trigger b f;
#X obj 790 297 f;
#X obj 839 319 r fi;
#X obj 906 319 r fo;
#X obj 715 298 line~;
#X obj 746 208 r glide;
#X obj 711 271 pack 220 10;
#X obj 943 318 osc~;
#X obj 943 204 unpack 0 0;
#X obj 941 419 *~;
#X obj 999 357 line~;
#X obj 999 230 trigger b f;
#X obj 999 318 pack 1 10;
#X obj 1072 315 pack 0 5;
#X obj 999 268 f;
#X obj 1048 290 r fi;
#X obj 1115 290 r fo;
#X obj 924 269 line~;
#X obj 955 179 r glide;
#X obj 920 242 pack 220 10;
#X obj 347 350 pack 1 15;
#X obj 420 347 pack 0 10;
#X obj 577 350 pack 1 20;
#X obj 650 347 pack 0 15;
#X obj 790 347 pack 1 25;
#X obj 863 344 pack 0 20;
#X connect 0 0 2 0;
#X connect 1 0 36 0;
#X connect 1 1 5 0;
#X connect 2 0 9 0;
#X connect 3 0 2 1;
#X connect 4 0 14 0;
#X connect 5 0 4 0;
#X connect 5 0 69 0;
#X connect 5 1 4 1;
#X connect 6 0 14 1;
#X connect 7 0 20 1;
#X connect 8 0 10 0;
#X connect 10 0 22 0;
#X connect 10 1 13 0;
#X connect 11 0 43 0;
#X connect 13 0 11 1;
#X connect 13 1 11 2;
#X connect 14 0 3 0;
#X connect 15 0 17 0;
#X connect 16 0 39 0;
#X connect 16 1 19 0;
#X connect 17 0 9 0;
#X connect 18 0 17 1;
#X connect 19 0 21 0;
#X connect 19 0 71 0;
#X connect 19 1 21 1;
#X connect 20 0 3 0;
#X connect 21 0 68 0;
#X connect 22 0 11 0;
#X connect 23 0 68 1;
#X connect 24 0 69 1;
#X connect 25 0 27 0;
#X connect 26 0 42 0;
#X connect 26 1 29 0;
#X connect 27 0 9 0;
#X connect 28 0 27 1;
#X connect 29 0 30 0;
#X connect 29 0 73 0;
#X connect 29 1 30 1;
#X connect 30 0 70 0;
#X connect 31 0 70 1;
#X connect 32 0 71 1;
#X connect 34 0 0 0;
#X connect 35 0 36 1;
#X connect 36 0 34 0;
#X connect 37 0 15 0;
#X connect 38 0 39 1;
#X connect 39 0 37 0;
#X connect 40 0 25 0;
#X connect 41 0 42 1;
#X connect 42 0 40 0;
#X connect 43 0 1 0;
#X connect 43 1 16 0;
#X connect 43 2 26 0;
#X connect 43 3 45 0;
#X connect 43 4 56 0;
#X connect 44 0 46 0;
#X connect 45 0 54 0;
#X connect 45 1 48 0;
#X connect 46 0 9 0;
#X connect 47 0 46 1;
#X connect 48 0 49 0;
#X connect 48 0 61 0;
#X connect 48 1 49 1;
#X connect 49 0 72 0;
#X connect 50 0 72 1;
#X connect 51 0 73 1;
#X connect 52 0 44 0;
#X connect 53 0 54 1;
#X connect 54 0 52 0;
#X connect 55 0 57 0;
#X connect 56 0 67 0;
#X connect 56 1 59 0;
#X connect 57 0 9 0;
#X connect 58 0 57 1;
#X connect 59 0 62 0;
#X connect 59 0 20 0;
#X connect 59 1 62 1;
#X connect 60 0 58 0;
#X connect 61 0 58 0;
#X connect 62 0 60 0;
#X connect 63 0 60 1;
#X connect 64 0 61 1;
#X connect 65 0 55 0;
#X connect 66 0 67 1;
#X connect 67 0 65 0;
#X connect 68 0 18 0;
#X connect 69 0 18 0;
#X connect 70 0 28 0;
#X connect 71 0 28 0;
#X connect 72 0 47 0;
#X connect 73 0 47 0;
#X restore 601 348 pd;
#X obj 605 -2 print ----;
#X msg 84 2 hop \$1;
#X obj 98 -72 hsl 128 15 512 16384 0 0 empty empty empty -2 -8 0 10
-262144 -1 -1 3800 1;
#X obj 253 -74 hsl 128 15 512 16384 0 0 empty empty empty -2 -8 0 10
-262144 -1 -1 4600 1;
#X obj 395 -77 hsl 128 15 0 20000 0 0 empty empty empty -2 -8 0 10
-262144 -1 -1 3900 1;
#X msg 166 -4 npts \$1;
#X msg 238 1 maxfreq \$1;
#X obj 493 -52 hsl 128 15 0 96 0 0 empty empty empty -2 -8 0 10 -262144
-1 -1 5800 1;
#X msg 302 31 minpower \$1;
#X obj 530 20 hsl 128 15 512 16384 0 0 empty empty empty -2 -8 0 10
-262144 -1 -1 0 1;
#X msg 360 71 stabletime \$1;
#X obj 99 -39 line 0 100;
#X obj 205 -39 line 0 100;
#X obj 354 -47 line 0 100;
#X obj 435 -19 line 0 100;
#X obj 508 46 line 0 100;
#X msg 1256 27 open cwejman.wav;
#X msg 1291 -31 open serge.wav;
#X msg 1268 -83 open iliketrains.wav;
#X msg 1255 -54 open kalimba.wav;
#X msg 1286 -109 open chicago.wav;
#X msg 1290 -3 open hawaii.wav;
#X msg 1393 -27 open radiostream2.wav;
#X obj 1003 79 openpanel;
#X msg 825 72 start;
#X msg 824 107 stop;
#X obj 999 51 bng 15 250 50 0 empty empty empty 17 7 0 10 -262144 -1
-1;
#X obj 807 -117 bng 15 250 50 0 empty empty empty 17 7 0 10 -262144
-1 -1;
#X msg 809 -91 open /Users/giaev24/SoundExamplesPD/temp1234.wav;
#X obj 900 -24 bng 15 250 50 0 empty empty empty 17 7 0 10 -262144
-1 -1;
#X msg 901 0 open /Users/giaev24/SoundExamplesPD/temp1234.wav \, 1
;
#X msg 1007 120 open \$1;
#X obj 1130 132 openpanel;
#X obj 1164 106 bng 15 250 50 0 empty empty empty 17 7 0 10 -262144
-1 -1;
#X msg 1099 191 open \$1 \, 1;
#X msg 823 177 1;
#X text 829 -120 requires start message to be sent to readsf~;
#X text 1022 48 requires start;
#X text 1192 100 sends start;
#X obj 789 -23 readsf~ 1;
#X text 888 392 parameter setting;
#X text 829 -120 comment;
#X text 919 -29 comment;
#X obj 944 239 vu 15 120 empty empty -1 -8 0 10 -66577 -1 1 0;
#X obj 942 194 env~;
#X obj 943 215 - 96;
#X obj 712 58 adc~;
#X obj 826 487 recorder;
#X obj 604 117 adc~;
#X obj 611 145 *~ 10;
#X obj 646 168 tabwrite~ array1;
#X obj 678 141 metro 100;
#X obj 650 132 bng 15 250 50 0 empty empty empty 17 7 0 10 -262144
-1 -1;
#X obj 595 186 threshold~ 1 3000 0.1 1000;
#X obj 612 217 bng 15 250 50 0 empty empty empty 17 7 0 10 -262144
-1 -1;
#X connect 0 0 19 0;
#X connect 1 0 4 0;
#X connect 1 1 25 0;
#X connect 1 2 26 0;
#X connect 1 3 27 0;
#X connect 1 4 28 0;
#X connect 1 5 29 0;
#X connect 1 6 30 0;
#X connect 1 7 31 0;
#X connect 1 8 32 0;
#X connect 1 9 33 0;
#X connect 1 10 34 0;
#X connect 1 11 35 0;
#X connect 1 12 36 0;
#X connect 1 13 37 0;
#X connect 1 14 38 0;
#X connect 1 15 39 0;
#X connect 2 0 17 0;
#X connect 3 0 17 0;
#X connect 4 0 12 0;
#X connect 6 0 7 0;
#X connect 6 0 12 1;
#X connect 7 0 10 1;
#X connect 8 0 18 0;
#X connect 9 0 87 0;
#X connect 9 0 87 1;
#X connect 9 0 5 0;
#X connect 9 0 5 1;
#X connect 10 0 9 0;
#X connect 12 0 9 0;
#X connect 14 0 19 1;
#X connect 15 0 17 0;
#X connect 16 0 17 0;
#X connect 17 0 22 0;
#X connect 18 0 1 0;
#X connect 19 0 20 0;
#X connect 22 0 23 0;
#X connect 23 0 21 0;
#X connect 25 0 12 0;
#X connect 26 0 12 0;
#X connect 27 0 12 0;
#X connect 28 0 12 0;
#X connect 29 0 12 0;
#X connect 30 0 12 0;
#X connect 31 0 12 0;
#X connect 32 0 12 0;
#X connect 33 0 12 0;
#X connect 34 0 12 0;
#X connect 35 0 12 0;
#X connect 36 0 12 0;
#X connect 37 0 12 0;
#X connect 38 0 12 0;
#X connect 39 0 12 0;
#X connect 41 0 18 0;
#X connect 42 0 51 0;
#X connect 43 0 52 0;
#X connect 44 0 53 0;
#X connect 45 0 18 0;
#X connect 46 0 18 0;
#X connect 47 0 54 0;
#X connect 48 0 18 0;
#X connect 49 0 55 0;
#X connect 50 0 18 0;
#X connect 51 0 41 0;
#X connect 52 0 45 0;
#X connect 53 0 46 0;
#X connect 54 0 48 0;
#X connect 54 0 18 0;
#X connect 55 0 50 0;
#X connect 56 0 17 0;
#X connect 57 0 17 0;
#X connect 58 0 17 0;
#X connect 59 0 17 0;
#X connect 60 0 17 0;
#X connect 61 0 17 0;
#X connect 62 0 17 0;
#X connect 63 0 71 0;
#X connect 64 0 79 0;
#X connect 65 0 79 0;
#X connect 66 0 63 0;
#X connect 67 0 68 0;
#X connect 68 0 79 0;
#X connect 69 0 70 0;
#X connect 70 0 79 0;
#X connect 71 0 79 0;
#X connect 72 0 74 0;
#X connect 73 0 72 0;
#X connect 74 0 79 0;
#X connect 75 0 79 0;
#X connect 79 0 10 0;
#X connect 79 0 84 0;
#X connect 79 0 8 0;
#X connect 84 0 85 0;
#X connect 85 0 83 0;
#X connect 88 0 89 0;
#X connect 89 0 93 0;
#X connect 89 0 90 0;
#X connect 91 0 90 0;
#X connect 92 0 91 0;
#X connect 93 0 94 0;
