#N canvas 449 209 796 428 10;
#X obj -7 306 dac~;
#X obj 31 306 writesf~ 2;
#X msg 89 252 stop;
#X obj 160 125 bng 15 250 50 0 empty empty record 17 7 0 10 -262144
-1 -1;
#X obj 160 150 bng 15 250 50 0 empty empty stop 17 7 0 10 -262144 -1
-1;
#X obj -7 279 inlet~;
#X obj 88 279 inlet~;
#X obj 31 198 savepanel;
#X msg 31 225 open -bytes 4 \$1 \, start;
#N canvas 0 22 450 300 (subpatch) 0;
#X array \$0-left 4410 float 2;
#X coords 0 1 4410 -1 40 80 2 0 0;
#X restore 110 125 graph;
#X obj 254 279 metro 100;
#X obj 281 73 samplerate~;
#X obj 254 19 loadbang;
#X obj 281 100 / 10;
#X obj 281 127 pack f \$0;
#N canvas 0 22 450 300 (subpatch) 0;
#X array \$0-right 4410 float 2;
#X coords 0 1 4410 -1 40 80 2 0 0;
#X restore 221 125 graph;
#X msg 281 154 \; \$2-left resize \$1 \; \$2-right resize \$1;
#X obj 254 306 tabwrite~ \$0-right;
#X obj 138 306 tabwrite~ \$0-left;
#X obj 254 46 t b b;
#X connect 2 0 1 0;
#X connect 3 0 7 0;
#X connect 4 0 2 0;
#X connect 5 0 0 0;
#X connect 5 0 1 0;
#X connect 5 0 18 0;
#X connect 6 0 0 1;
#X connect 6 0 1 1;
#X connect 6 0 17 0;
#X connect 7 0 8 0;
#X connect 8 0 1 0;
#X connect 10 0 18 0;
#X connect 10 0 17 0;
#X connect 11 0 13 0;
#X connect 12 0 19 0;
#X connect 13 0 14 0;
#X connect 14 0 16 0;
#X connect 19 0 10 0;
#X connect 19 1 11 0;
#X coords 0 -1 1 1 171 115 2 100 100;
